<?xml version="1.0" encoding="UTF-8"?>
<svg version="1.1" xmlns="http://www.w3.org/2000/svg" width="500" height="500">
<path d="M0 0 C6.83419106 6.68709754 10.07619118 11.58610312 10.375 21.125 C10.42398438 22.17945313 10.47296875 23.23390625 10.5234375 24.3203125 C9.21449882 33.52195604 3.6807367 40.04216352 -2.80371094 46.30786133 C-3.57336685 47.0718222 -4.34302277 47.83578308 -5.13600159 48.62289429 C-6.79459749 50.26591041 -8.45897251 51.90310958 -10.12856293 53.53495216 C-12.77049923 56.11734127 -15.39661419 58.71493791 -18.01934814 61.31681824 C-23.58226329 66.82961994 -29.16548146 72.32159818 -34.75 77.8125 C-41.23710207 84.19451166 -47.71464951 90.58598311 -54.17743683 96.99262047 C-56.766643 99.55214581 -59.36795804 102.0989092 -61.97015381 104.6452179 C-63.55194534 106.20928922 -65.13321207 107.77389154 -66.71386719 109.33911133 C-67.80475395 110.3966436 -67.80475395 110.3966436 -68.91767883 111.47554016 C-69.57654587 112.13268005 -70.2354129 112.78981995 -70.91424561 113.46687317 C-71.48940289 114.03184918 -72.06456017 114.5968252 -72.65714645 115.1789217 C-74.31649978 117.4292135 -74.57935373 119.25807153 -75 122 C-75.81685641 124.28451972 -76.67325043 126.55517417 -77.5625 128.8125 C-78.01753906 129.97394531 -78.47257813 131.13539063 -78.94140625 132.33203125 C-79.46541016 133.65267578 -79.46541016 133.65267578 -80 135 C-78.824375 135.37125 -78.824375 135.37125 -77.625 135.75 C-74.54270292 137.21776051 -74.19012225 137.89144138 -73 141 C-72.55931267 144.65585318 -72.62975425 148.32020813 -72.625 152 C-72.60050781 152.99773437 -72.57601562 153.99546875 -72.55078125 155.0234375 C-72.52204074 162.17024332 -72.52204074 162.17024332 -74.5390625 165.671875 C-77.94312408 167.5089876 -80.99692401 167.43303737 -84.75 167.25 C-87.1425 167.1675 -89.535 167.085 -92 167 C-92 161.72 -92 156.44 -92 151 C-93.98 150.67 -95.96 150.34 -98 150 C-97.95359375 150.89203125 -97.9071875 151.7840625 -97.859375 152.703125 C-97.82328125 153.87359375 -97.7871875 155.0440625 -97.75 156.25 C-97.70359375 157.41015625 -97.6571875 158.5703125 -97.609375 159.765625 C-98 163 -98 163 -99.53125 165.40625 C-102.9043725 167.58383541 -105.87988416 167.44021363 -109.75 167.25 C-110.44738281 167.23195313 -111.14476562 167.21390625 -111.86328125 167.1953125 C-113.57611539 167.14838554 -115.28823824 167.07664605 -117 167 C-117.04898438 166.07316406 -117.09796875 165.14632812 -117.1484375 164.19140625 C-117.26058594 162.39509766 -117.26058594 162.39509766 -117.375 160.5625 C-117.44460937 159.36753906 -117.51421875 158.17257812 -117.5859375 156.94140625 C-117.72257812 155.97074219 -117.85921875 155.00007812 -118 154 C-118.66 153.67 -119.32 153.34 -120 153 C-120.0825 153.886875 -120.165 154.77375 -120.25 155.6875 C-121.12383365 159.54693196 -122.21424295 161.21424295 -125 164 C-129.48160427 166.68791338 -132.73144576 167.36197196 -137.9296875 167.29296875 C-139.21875 167.28330078 -140.5078125 167.27363281 -141.8359375 167.26367188 C-143.18229786 167.23861188 -144.52865203 167.21321712 -145.875 167.1875 C-147.24477705 167.17243504 -148.61457002 167.15874982 -149.984375 167.14648438 C-153.32332358 167.11121379 -156.66145675 167.06191896 -160 167 C-160.10807131 165.06372231 -160.1856225 163.12572244 -160.25 161.1875 C-160.29640625 160.10855469 -160.3428125 159.02960938 -160.390625 157.91796875 C-160 155 -160 155 -158.15917969 153.14526367 C-155.45622734 151.71157422 -153.29513975 151.49375832 -150.25 151.3125 C-149.26515625 151.24675781 -148.2803125 151.18101562 -147.265625 151.11328125 C-146.14414063 151.05720703 -146.14414063 151.05720703 -145 151 C-146.01320313 150.85304688 -146.01320313 150.85304688 -147.046875 150.703125 C-155.97679195 149.20620251 -155.97679195 149.20620251 -159 145 C-160 143 -160 143 -159.31323242 139.68237305 C-158.19185794 133.27905252 -158.14657298 127.81902166 -161.81988525 122.23199463 C-167.53609904 115.3736383 -174.11389871 109.33554302 -180.6854248 103.31176758 C-184.96543979 99.36795003 -189.15972521 95.33227597 -193.36717796 91.31143761 C-194.83154174 89.92459061 -196.31518342 88.55818964 -197.79914856 87.19233704 C-203.38174229 81.97171073 -207.14317373 78.11780016 -208.43359375 70.41015625 C-208.44747445 62.06785617 -206.09484791 56.91598196 -200.25 51 C-199.16997978 49.99642268 -198.08718701 48.99580897 -197 48 C-190.01336936 53.73847715 -183.66309426 60.1166779 -177.25 66.4765625 C-176.34757065 67.37100634 -176.34757065 67.37100634 -175.4269104 68.28351974 C-172.25423851 71.42963429 -169.08513207 74.57929553 -165.91845703 77.73144531 C-163.29870149 80.33777586 -160.67183301 82.93661093 -158.03857422 85.52929688 C-154.84884665 88.66990064 -151.67138778 91.82242229 -148.50256348 94.98411179 C-147.29466922 96.18527617 -146.08251075 97.38216793 -144.86608887 98.57469559 C-143.1735914 100.23577621 -141.49733864 101.91172012 -139.82421875 103.59228516 C-139.31733017 104.0827684 -138.81044159 104.57325165 -138.28819275 105.07859802 C-136.9206543 106.47134399 -136.9206543 106.47134399 -135 109 C-135.12652464 111.79652388 -135.70429106 112.66880599 -137.5625 114.75 C-138.036875 115.1625 -138.51125 115.575 -139 116 C-137.94039063 116.06058594 -136.88078125 116.12117188 -135.7890625 116.18359375 C-134.40102779 116.26800127 -133.01300768 116.35264917 -131.625 116.4375 C-130.92632812 116.47681641 -130.22765625 116.51613281 -129.5078125 116.55664062 C-124.2265625 116.88671875 -124.2265625 116.88671875 -122 118 C-122 118.99 -122 119.98 -122 121 C-115.18674927 115.27047209 -108.90492316 109.0407551 -102.62695312 102.74047852 C-101.50284974 101.61609254 -100.37852508 100.49192774 -99.2539978 99.3679657 C-96.22340016 96.33765322 -93.19588071 93.30428263 -90.16893196 90.2703259 C-86.99703356 87.09214701 -83.82227492 83.91682782 -80.64782715 80.74119568 C-74.64661803 74.73688703 -68.64796108 68.73003538 -62.65023184 62.72225088 C-55.8178221 55.87863707 -48.98254925 49.03788591 -42.14704227 42.19736588 C-28.09485494 28.13474539 -14.04624145 14.0685593 0 0 Z " fill="#7842E7" transform="translate(349,140)"/>
<path d="M0 0 C4.78703704 3.36111111 4.78703704 3.36111111 6 7 C-29.97 42.97 -65.94 78.94 -103 116 C-107.06525652 113.96737174 -109.72693147 111.57556856 -112.88598633 108.42041016 C-113.75246292 107.56641884 -113.75246292 107.56641884 -114.63644409 106.69517517 C-116.54044109 104.81523758 -118.43672496 102.92775913 -120.33203125 101.0390625 C-121.65142764 99.72863149 -122.97090198 98.41827897 -124.29045105 97.10800171 C-127.05210194 94.36282948 -129.8093382 91.61330336 -132.56420898 88.86132812 C-136.10131852 85.3296186 -139.65432077 81.81436884 -143.21144581 78.30283546 C-145.94011264 75.60384338 -148.65752404 72.89373445 -151.37189293 70.18037033 C-152.67760802 68.8788722 -153.98746096 67.58151205 -155.30143166 66.28834915 C-157.13326683 64.48324412 -158.94877272 62.66315216 -160.76098633 60.83837891 C-161.309991 60.30420853 -161.85899567 59.77003815 -162.42463684 59.21968079 C-163.90730286 57.70742798 -163.90730286 57.70742798 -166 55 C-165.92188682 52.01166913 -165.27762239 51.28238844 -163.1796875 49.1484375 C-156.65284522 44.12608767 -151.44722613 41.37550456 -143.08984375 42.41796875 C-130.67729951 45.87492032 -121.12836606 58.78505704 -112.42504883 67.61132812 C-111.62478271 68.42021484 -110.8245166 69.22910156 -110 70.0625 C-109.278125 70.79597656 -108.55625 71.52945313 -107.8125 72.28515625 C-106.10124197 74.07015066 -106.10124197 74.07015066 -104 75 C-104 74.34 -104 73.68 -104 73 C-102.42578125 71.484375 -102.42578125 71.484375 -100.3125 69.75 C-97.76022238 67.58796518 -95.44928319 65.5001584 -93.375 62.875 C-90.83741692 59.80318891 -88.08720122 57.50835099 -85 55 C-83.32135456 53.34539882 -81.65652153 51.67675042 -80 50 C-79.01740931 49.0205907 -78.03372126 48.04228137 -77.04907227 47.06494141 C-74.16921978 44.20293643 -71.29245839 41.33784632 -68.41674805 38.47167969 C-67.18327155 37.24323778 -65.94889981 36.01569412 -64.71362305 34.7890625 C-62.91213058 32.99980876 -61.11398459 31.20724754 -59.31640625 29.4140625 C-58.77246719 28.87528473 -58.22852814 28.33650696 -57.66810608 27.78140259 C-54.38465069 24.49842051 -51.30519055 21.10259387 -48.32237244 17.54379272 C-46.34066083 15.23025996 -44.17914246 13.12725812 -42 11 C-41.41476562 10.38125 -40.82953125 9.7625 -40.2265625 9.125 C-28.75607582 -2.8442035 -15.4030635 -9.91943318 0 0 Z " fill="#8B52FB" transform="translate(331,122)"/>
<path d="M0 0 C6.83419106 6.68709754 10.07619118 11.58610312 10.375 21.125 C10.42398438 22.17945313 10.47296875 23.23390625 10.5234375 24.3203125 C9.22136989 33.47365346 3.6470574 40.10496978 -2.68920898 46.46313477 C-3.8270005 47.63334419 -3.8270005 47.63334419 -4.98777771 48.82719421 C-7.47711141 51.3788587 -9.98482603 53.91133694 -12.49609375 56.44140625 C-14.24917105 58.2181974 -16.00210348 59.9951315 -17.75489807 61.77220154 C-21.42323047 65.4838877 -25.10242514 69.1844319 -28.7878418 72.87915039 C-32.56081592 76.66236595 -36.3097098 80.46773725 -40.03881836 84.29418945 C-44.56069834 88.93227485 -49.1137308 93.53738325 -53.69185066 98.11994743 C-55.42445092 99.86394658 -57.14636326 101.61863486 -58.85693169 103.38424873 C-73.91105057 118.88485176 -73.91105057 118.88485176 -82.91821289 119.26538086 C-84.0025209 119.1445665 -85.08682892 119.02375214 -86.20399475 118.89927673 C-89.21774245 118.68787472 -89.21774245 118.68787472 -91.30101013 121.32984924 C-92.86385803 123.78603782 -94.12893494 126.12995147 -95.25 128.8125 C-95.58515625 129.60269531 -95.9203125 130.39289063 -96.265625 131.20703125 C-96.50796875 131.79871094 -96.7503125 132.39039063 -97 133 C-97.33 133 -97.66 133 -98 133 C-98.33 128.05 -98.66 123.1 -99 118 C-105.93 117.505 -105.93 117.505 -113 117 C-109.10920409 108.95115269 -103.84132933 103.29327743 -97.51831055 97.06420898 C-96.45268711 95.99971586 -95.3879477 94.93433716 -94.32402039 93.8681488 C-91.45312661 90.99611415 -88.57012809 88.13652299 -85.68468833 85.27911258 C-82.66392442 82.28346739 -79.65459279 79.27638092 -76.64399719 76.27052307 C-70.95018924 70.58911422 -65.24626834 64.91797332 -59.53858453 59.25050837 C-53.03731058 52.79404774 -46.54748174 46.32613434 -40.05855882 39.8572644 C-26.7183437 26.55878412 -13.3639219 13.27465451 0 0 Z " fill="#5C17E9" transform="translate(349,140)"/>
<path d="M0 0 C1.91329102 0.01740234 1.91329102 0.01740234 3.86523438 0.03515625 C5.84426758 0.09123047 5.84426758 0.09123047 7.86328125 0.1484375 C9.207657 0.16496472 10.55206148 0.17930759 11.89648438 0.19140625 C21.62338813 0.33930646 21.62338813 0.33930646 25.17578125 1.5234375 C25.67078125 3.0084375 25.67078125 3.0084375 26.17578125 4.5234375 C26.77390625 3.8634375 27.37203125 3.2034375 27.98828125 2.5234375 C32.57785641 -0.35629593 36.87993089 0.0032332 42.17578125 0.5234375 C42.83578125 0.8534375 43.49578125 1.1834375 44.17578125 1.5234375 C44.43780314 3.96500507 44.5973898 6.32485747 44.67578125 8.7734375 C44.82648325 13.374281 45.14962162 17.30771827 47.17578125 21.5234375 C47.83578125 21.1934375 48.49578125 20.8634375 49.17578125 20.5234375 C50.28092891 17.20799451 50.49685756 14.31933639 50.73828125 10.8359375 C50.82207031 9.65644531 50.90585937 8.47695313 50.9921875 7.26171875 C51.08306641 5.90626953 51.08306641 5.90626953 51.17578125 4.5234375 C52.16578125 4.1934375 53.15578125 3.8634375 54.17578125 3.5234375 C54.17578125 2.8634375 54.17578125 2.2034375 54.17578125 1.5234375 C56.78497953 0.21883836 58.7652074 0.3907781 61.67578125 0.3984375 C62.65546875 0.39585937 63.63515625 0.39328125 64.64453125 0.390625 C67.17578125 0.5234375 67.17578125 0.5234375 69.17578125 1.5234375 C69.95241991 13.41956935 70.36099747 22.04056505 62.17578125 31.5234375 C61.44875 32.33941406 60.72171875 33.15539062 59.97265625 33.99609375 C57.51791088 37.44874647 57.69523689 40.00759842 57.64453125 44.12109375 C56.98898372 47.48077483 55.98073943 48.57157966 53.17578125 50.5234375 C50.43895154 50.8145896 48.13638086 50.90666168 45.42578125 50.7734375 C44.72839844 50.75539063 44.03101563 50.73734375 43.3125 50.71875 C41.59966586 50.67182304 39.88754301 50.60008355 38.17578125 50.5234375 C38.23121094 49.97558594 38.28664063 49.42773438 38.34375 48.86328125 C38.39962455 41.99071106 35.87024207 38.30779056 31.73828125 33.1484375 C26.72045366 26.87336089 24.37504824 21.75469695 24.17578125 13.5234375 C23.51578125 14.5134375 22.85578125 15.5034375 22.17578125 16.5234375 C18.75345153 17.66421407 16.08904908 17.62158867 12.48828125 17.5859375 C10.71904297 17.57240234 10.71904297 17.57240234 8.9140625 17.55859375 C8.01042969 17.54699219 7.10679687 17.53539062 6.17578125 17.5234375 C6.17578125 18.1834375 6.17578125 18.8434375 6.17578125 19.5234375 C7.20638672 19.50603516 7.20638672 19.50603516 8.2578125 19.48828125 C9.15886719 19.47925781 10.05992187 19.47023438 10.98828125 19.4609375 C11.88160156 19.44933594 12.77492188 19.43773437 13.6953125 19.42578125 C16.17578125 19.5234375 16.17578125 19.5234375 19.17578125 20.5234375 C20.79708035 23.76603571 20.73388641 27.01905625 20.17578125 30.5234375 C18.86037835 33.44928694 17.77074751 34.36096562 15.17578125 36.5234375 C12.31930451 37.01975693 10.10406545 36.82122911 7.17578125 36.5234375 C6.84578125 40.1534375 6.51578125 43.7834375 6.17578125 47.5234375 C5.51578125 47.5234375 4.85578125 47.5234375 4.17578125 47.5234375 C3.84578125 48.5134375 3.51578125 49.5034375 3.17578125 50.5234375 C0.69654324 50.55028845 -1.78240715 50.57020297 -4.26171875 50.5859375 C-4.96876953 50.59431641 -5.67582031 50.60269531 -6.40429688 50.61132812 C-8.21115434 50.61997338 -10.01809478 50.57563761 -11.82421875 50.5234375 C-13.35431495 48.9933413 -12.9886379 47.58396121 -13.03295898 45.45019531 C-13.0522496 44.58549622 -13.07154022 43.72079712 -13.09141541 42.82989502 C-13.14899388 38.86124592 -13.19845443 34.89278336 -13.22924805 30.92382812 C-13.2508231 28.8305613 -13.28492 26.73738456 -13.33178711 24.64453125 C-13.39872296 21.62979761 -13.4262384 18.61693403 -13.4453125 15.6015625 C-13.47314316 14.66805969 -13.50097382 13.73455688 -13.52964783 12.77276611 C-13.50999313 6.5578875 -13.50999313 6.5578875 -11.68623352 3.80685425 C-8.06985501 0.42039897 -4.78782601 -0.08149209 0 0 Z " fill="#7643E5" transform="translate(330.82421875,256.4765625)"/>
<path d="M0 0 C6.98663064 5.73847715 13.33690574 12.1166779 19.75 18.4765625 C20.35161957 19.07285839 20.95323914 19.66915428 21.5730896 20.28351974 C24.74576149 23.42963429 27.91486793 26.57929553 31.08154297 29.73144531 C33.70129851 32.33777586 36.32816699 34.93661093 38.96142578 37.52929688 C42.15115335 40.66990064 45.32861222 43.82242229 48.49743652 46.98411179 C49.70533078 48.18527617 50.91748925 49.38216793 52.13391113 50.57469559 C53.8264086 52.23577621 55.50266136 53.91172012 57.17578125 55.59228516 C57.68266983 56.0827684 58.18955841 56.57325165 58.71180725 57.07859802 C60.0793457 58.47134399 60.0793457 58.47134399 62 61 C61.93425449 64.38394612 60.90499853 65.09975154 58.5 67.625 C55.2498942 70.20320893 52.19338431 70.71255157 48.17578125 71.39453125 C45.73059175 72.07496998 44.53719816 72.97828524 42.6875 74.6875 C40 77 40 77 38.10987854 76.89712524 C35.32785427 75.71420208 33.70058618 74.08945597 31.55444336 71.95849609 C30.68351547 71.10025238 29.81258759 70.24200867 28.91526794 69.35775757 C27.9730027 68.41344017 27.0312061 67.46865496 26.08984375 66.5234375 C25.11662152 65.5547786 24.14302875 64.58649186 23.16908264 63.61856079 C21.12905251 61.58746405 19.09480012 59.55078569 17.06420898 57.51025391 C14.47132862 54.90591543 11.86299538 52.31771247 9.24980831 49.73377037 C7.2343278 47.73671355 5.22832334 45.73034213 3.22488594 43.72121048 C1.80425647 42.30035451 0.37509418 40.88804645 -1.05421448 39.47592163 C-6.82630839 33.64142942 -11.42314743 28.68839611 -11.4375 20.0625 C-11.17222473 12.76743 -8.29795815 8.10939375 -3.25 3 C-2.16997978 1.99642268 -1.08718701 0.99580897 0 0 Z " fill="#5C17E9" transform="translate(152,188)"/>
<path d="M0 0 C0.85400391 -0.00708984 1.70800781 -0.01417969 2.58789062 -0.02148438 C8.81657461 0.04212355 8.81657461 0.04212355 10.98144531 1.76806641 C13.03904188 4.34874236 14.11022956 7.21261011 15.375 10.25 C15.88160156 11.45269531 16.38820312 12.65539062 16.91015625 13.89453125 C17.37292969 15.06371094 17.83570313 16.23289062 18.3125 17.4375 C18.69535156 18.33597656 19.07820313 19.23445313 19.47265625 20.16015625 C20.74197778 25.11346214 20.6811179 29.96958465 20.6875 35.0625 C20.71199219 36.09890625 20.73648438 37.1353125 20.76171875 38.203125 C20.76751953 39.69972656 20.76751953 39.69972656 20.7734375 41.2265625 C20.78165527 42.13100098 20.78987305 43.03543945 20.79833984 43.96728516 C20.15499614 47.23831609 18.92305934 48.4223822 16.3125 50.4375 C13.57567029 50.7286521 11.27309961 50.82072418 8.5625 50.6875 C7.86511719 50.66945313 7.16773438 50.65140625 6.44921875 50.6328125 C4.73638461 50.58588554 3.02426176 50.51414605 1.3125 50.4375 C0.8175 45.4875 0.8175 45.4875 0.3125 40.4375 C-1.6675 40.1075 -3.6475 39.7775 -5.6875 39.4375 C-5.6875 42.0775 -5.6875 44.7175 -5.6875 47.4375 C-6.3475 47.4375 -7.0075 47.4375 -7.6875 47.4375 C-7.6875 48.0975 -7.6875 48.7575 -7.6875 49.4375 C-10.69063748 50.93906874 -13.47817522 50.53031204 -16.8125 50.5 C-18.09382812 50.49097656 -19.37515625 50.48195313 -20.6953125 50.47265625 C-22.17644531 50.45525391 -22.17644531 50.45525391 -23.6875 50.4375 C-27.27516629 43.26216743 -25.16463054 29.59400031 -22.73046875 22.234375 C-22.21419922 20.84992188 -22.21419922 20.84992188 -21.6875 19.4375 C-21.47818848 18.82712891 -21.26887695 18.21675781 -21.05322266 17.58789062 C-20.35304981 15.54832133 -19.61976121 13.5236809 -18.875 11.5 C-18.53927979 10.54057495 -18.53927979 10.54057495 -18.19677734 9.56176758 C-14.73605009 0.67640344 -8.54042825 -0.20256563 0 0 Z M-3.6875 18.4375 C-4.0175 20.0875 -4.3475 21.7375 -4.6875 23.4375 C-3.3675 23.7675 -2.0475 24.0975 -0.6875 24.4375 C-1.0175 22.4575 -1.3475 20.4775 -1.6875 18.4375 C-2.3475 18.4375 -3.0075 18.4375 -3.6875 18.4375 Z " fill="#7742E6" transform="translate(166.6875,256.5625)"/>
<path d="M0 0 C1.30130859 -0.01224609 2.60261719 -0.02449219 3.94335938 -0.03710938 C5.81024414 -0.04000977 5.81024414 -0.04000977 7.71484375 -0.04296875 C8.85945068 -0.04707764 10.00405762 -0.05118652 11.18334961 -0.05541992 C14.0625 0.1875 14.0625 0.1875 17.0625 2.1875 C17.7802889 5.56708939 17.6384223 8.79062498 17.0625 12.1875 C14.8125 15.3125 14.8125 15.3125 12.0625 17.1875 C10.7425 17.1875 9.4225 17.1875 8.0625 17.1875 C8.5575 25.1075 8.5575 25.1075 9.0625 33.1875 C11.3725 33.8475 13.6825 34.5075 16.0625 35.1875 C17.71215169 36.83715169 17.31199498 38.7351355 17.375 41 C17.43107422 42.30904297 17.43107422 42.30904297 17.48828125 43.64453125 C16.90976496 47.09970649 15.83251661 48.06562562 13.0625 50.1875 C9.67089844 50.64160156 9.67089844 50.64160156 5.671875 50.578125 C4.61495453 50.56963531 4.61495453 50.56963531 3.53668213 50.56097412 C1.29458572 50.53865078 -0.94588988 50.48846754 -3.1875 50.4375 C-4.71091435 50.41742952 -6.23435386 50.3991797 -7.7578125 50.3828125 C-11.4848983 50.33880118 -15.21104087 50.26980372 -18.9375 50.1875 C-20.23871145 41.02285242 -20.23871145 41.02285242 -17.9375 37.1875 C-15.35720421 34.77367491 -14.5309292 34.1875 -10.9375 34.1875 C-10.9375 28.5775 -10.9375 22.9675 -10.9375 17.1875 C-13.2475 17.1875 -15.5575 17.1875 -17.9375 17.1875 C-18.9375 16.1875 -18.9375 16.1875 -19.03515625 13.46484375 C-19.02355469 12.36269531 -19.01195312 11.26054687 -19 10.125 C-18.99097656 9.02027344 -18.98195313 7.91554688 -18.97265625 6.77734375 C-18.96105469 5.92269531 -18.94945312 5.06804687 -18.9375 4.1875 C-17.9475 3.8575 -16.9575 3.5275 -15.9375 3.1875 C-15.9375 2.5275 -15.9375 1.8675 -15.9375 1.1875 C-11.37493942 -1.09378029 -5.00942821 0.00247379 0 0 Z " fill="#7443E5" transform="translate(297.9375,256.8125)"/>
<path d="M0 0 C0.76362854 0.00091644 1.52725708 0.00183289 2.31402588 0.0027771 C3.91758493 0.00878855 5.52113405 0.02446034 7.12451172 0.04931641 C9.58472743 0.08603604 12.04344393 0.09033398 14.50390625 0.08984375 C16.06511724 0.0996681 17.62631802 0.11132212 19.1875 0.125 C19.92393738 0.12722565 20.66037476 0.12945129 21.41912842 0.13174438 C26.59589778 0.22871028 26.59589778 0.22871028 28.828125 2.4609375 C29.66905434 7.46225408 29.58266969 11.31768798 26.765625 15.5859375 C23.17536707 17.8775915 21.00626729 17.60857504 16.828125 17.4609375 C16.84907227 18.35401611 16.87001953 19.24709473 16.89160156 20.16723633 C16.95979846 23.48277093 17.00993315 26.79755989 17.04785156 30.11352539 C17.06796025 31.54821536 17.09525173 32.98282343 17.12988281 34.41723633 C17.1784396 36.48018589 17.20109906 38.54205181 17.21875 40.60546875 C17.23969727 41.84659424 17.26064453 43.08771973 17.28222656 44.36645508 C16.828125 47.4609375 16.828125 47.4609375 12.828125 50.4609375 C7.878125 50.4609375 2.928125 50.4609375 -2.171875 50.4609375 C-2.171875 39.5709375 -2.171875 28.6809375 -2.171875 17.4609375 C-5.801875 17.4609375 -9.431875 17.4609375 -13.171875 17.4609375 C-14.97757255 15.65523995 -14.51194378 13.09012283 -14.609375 10.6484375 C-14.66996094 9.59011719 -14.73054688 8.53179687 -14.79296875 7.44140625 C-14.171875 4.4609375 -14.171875 4.4609375 -11.64379883 2.3034668 C-7.62011345 0.16812093 -4.43820774 -0.08757117 0 0 Z " fill="#7A41E5" transform="translate(113.171875,256.5390625)"/>
<path d="M0 0 C0 3 0 3 -2 6 C-1.07316406 6.06058594 -0.14632812 6.12117188 0.80859375 6.18359375 C2.00613281 6.26738281 3.20367187 6.35117187 4.4375 6.4375 C5.63246094 6.51871094 6.82742187 6.59992188 8.05859375 6.68359375 C11 7 11 7 12 8 C12.23427778 10.01594582 12.41336124 12.038474 12.5625 14.0625 C12.64628906 15.16722656 12.73007813 16.27195312 12.81640625 17.41015625 C12.87699219 18.26480469 12.93757813 19.11945313 13 20 C15.475 15.545 15.475 15.545 18 11 C18.66 11 19.32 11 20 11 C20.33 10.01 20.66 9.02 21 8 C25.62 8 30.24 8 35 8 C35.495 8.99 35.495 8.99 36 10 C35.0390625 12.4609375 35.0390625 12.4609375 33.625 15.375 C32.08278435 18.57143579 30.71047717 21.51370506 30 25 C30.78375 25.2475 31.5675 25.495 32.375 25.75 C35.45729708 27.21776051 35.80987775 27.89144138 37 31 C37.44068733 34.65585318 37.37024575 38.32020813 37.375 42 C37.39949219 42.99773437 37.42398438 43.99546875 37.44921875 45.0234375 C37.47795926 52.17024332 37.47795926 52.17024332 35.4609375 55.671875 C32.05687592 57.5089876 29.00307599 57.43303737 25.25 57.25 C22.8575 57.1675 20.465 57.085 18 57 C18 51.72 18 46.44 18 41 C15.03 40.34 12.06 39.68 9 39 C9 38.34 9 37.68 9 37 C9.99 36.34 10.98 35.68 12 35 C13.67641174 31.64717651 14 29.83880578 14 26 C12.35 26.33 10.7 26.66 9 27 C9 21.39 9 15.78 9 10 C5.16375 10.2165625 5.16375 10.2165625 1.25 10.4375 C0.45110352 10.48060303 -0.34779297 10.52370605 -1.17089844 10.56811523 C-4.56848441 10.77051551 -7.7213586 11.10379549 -11 12 C-10.814375 12.928125 -10.62875 13.85625 -10.4375 14.8125 C-10 18 -10 18 -11 21 C-11.99 21 -12.98 21 -14 21 C-14.495 16.05 -14.495 16.05 -15 11 C-22.92 10.67 -30.84 10.34 -39 10 C-38.67 9.34 -38.34 8.68 -38 8 C-32.96803505 6.74992066 -27.90026294 6.85007937 -22.75 6.875 C-21.9353125 6.87113281 -21.120625 6.86726563 -20.28125 6.86328125 C-14.25347799 6.873261 -14.25347799 6.873261 -12 8 C-12 8.99 -12 9.98 -12 11 C-5.82747447 5.68570186 -5.82747447 5.68570186 0 0 Z " fill="#7542E6" transform="translate(239,250)"/>
<path d="M0 0 C1.45599609 0.00966797 1.45599609 0.00966797 2.94140625 0.01953125 C5.4375 0.1875 5.4375 0.1875 7.4375 1.1875 C7.69952189 3.62906757 7.85910855 5.98891997 7.9375 8.4375 C8.088202 13.0383435 8.41134037 16.97178077 10.4375 21.1875 C11.0975 20.8575 11.7575 20.5275 12.4375 20.1875 C13.54264766 16.87205701 13.75857631 13.98339889 14 10.5 C14.08378906 9.32050781 14.16757812 8.14101563 14.25390625 6.92578125 C14.34478516 5.57033203 14.34478516 5.57033203 14.4375 4.1875 C15.4275 3.8575 16.4175 3.5275 17.4375 3.1875 C17.4375 2.5275 17.4375 1.8675 17.4375 1.1875 C20.04669828 -0.11709914 22.02692615 0.0548406 24.9375 0.0625 C25.9171875 0.05992187 26.896875 0.05734375 27.90625 0.0546875 C30.4375 0.1875 30.4375 0.1875 32.4375 1.1875 C33.21413866 13.08363185 33.62271622 21.70462755 25.4375 31.1875 C24.71304688 32.0021875 23.98859375 32.816875 23.2421875 33.65625 C21.24045549 36.46387411 20.92673998 37.91645707 20.8125 41.3125 C20.66737229 44.98534746 20.56207818 46.00063272 18.4375 49.1875 C15.94140625 49.55078125 15.94140625 49.55078125 13 49.5 C12.03191406 49.49613281 11.06382812 49.49226563 10.06640625 49.48828125 C7.4375 49.1875 7.4375 49.1875 4.4375 47.1875 C3.92578125 44.3671875 3.92578125 44.3671875 3.75 41.0625 C3.68425781 39.96679688 3.61851562 38.87109375 3.55078125 37.7421875 C3.51339844 36.89914062 3.47601563 36.05609375 3.4375 35.1875 C2.7775 35.1875 2.1175 35.1875 1.4375 35.1875 C1.14875 34.424375 0.86 33.66125 0.5625 32.875 C-0.52519013 30.03720692 -0.52519013 30.03720692 -2.5625 27.1875 C-0.5825 26.5275 1.3975 25.8675 3.4375 25.1875 C3.4375 18.2575 3.4375 11.3275 3.4375 4.1875 C1.49875 4.331875 -0.44 4.47625 -2.4375 4.625 C-4.07332031 4.74681641 -4.07332031 4.74681641 -5.7421875 4.87109375 C-8.50978971 5.01751703 -8.50978971 5.01751703 -10.5625 6.1875 C-8.26515091 0.88592517 -5.60552688 -0.08210492 0 0 Z " fill="#7742E6" transform="translate(367.5625,256.8125)"/>
<path d="M0 0 C0 0.66 0 1.32 0 2 C5.94 1.67 11.88 1.34 18 1 C21 7 21 7 21 9 C21.66 9 22.32 9 23 9 C23 12.96 23 16.92 23 21 C22.34 21 21.68 21 21 21 C20.9175 21.886875 20.835 22.77375 20.75 23.6875 C19.87616635 27.54693196 18.78575705 29.21424295 16 32 C11.51839573 34.68791338 8.26855424 35.36197196 3.0703125 35.29296875 C1.78125 35.28330078 0.4921875 35.27363281 -0.8359375 35.26367188 C-2.18229786 35.23861188 -3.52865203 35.21321712 -4.875 35.1875 C-6.24477705 35.17243504 -7.61457002 35.15874982 -8.984375 35.14648438 C-12.32332358 35.11121379 -15.66145675 35.06191896 -19 35 C-19.10807131 33.06372231 -19.1856225 31.12572244 -19.25 29.1875 C-19.29640625 28.10855469 -19.3428125 27.02960938 -19.390625 25.91796875 C-19 23 -19 23 -17.20288086 21.14746094 C-14.00788541 19.48321638 -11.14220739 19.43448442 -7.5625 19.25 C-6.26441406 19.17265625 -4.96632812 19.0953125 -3.62890625 19.015625 C-0.53583104 19.00230713 2.01912508 19.2418584 5 20 C5 19.01 5 18.02 5 17 C4.01 17 3.02 17 2 17 C-0.29013653 13.5647952 -0.17842973 12.014669 0 8 C-0.99 8 -1.98 8 -3 8 C-3 7.34 -3 6.68 -3 6 C-4.32 6 -5.64 6 -7 6 C-6.6875 4.125 -6.6875 4.125 -6 2 C-3 0 -3 0 0 0 Z " fill="#7343E4" transform="translate(208,272)"/>
<path d="M0 0 C0.98613281 0.00322266 1.97226563 0.00644531 2.98828125 0.00976562 C4.02082031 0.01814453 5.05335938 0.02652344 6.1171875 0.03515625 C7.67759766 0.04192383 7.67759766 0.04192383 9.26953125 0.04882812 C11.84380712 0.06063673 14.41796896 0.0771055 16.9921875 0.09765625 C17.19714844 0.72414063 17.40210938 1.350625 17.61328125 1.99609375 C17.88269531 2.81335938 18.15210938 3.630625 18.4296875 4.47265625 C18.69652344 5.28476562 18.96335938 6.096875 19.23828125 6.93359375 C19.94398479 9.10797424 19.94398479 9.10797424 20.9921875 11.09765625 C21.39377315 15.71589124 20.83650202 17.54226309 17.9921875 21.09765625 C17.9921875 22.41765625 17.9921875 23.73765625 17.9921875 25.09765625 C12.7121875 25.09765625 7.4321875 25.09765625 1.9921875 25.09765625 C1.9921875 24.76765625 1.9921875 24.43765625 1.9921875 24.09765625 C5.06835938 23.8046875 5.06835938 23.8046875 8.14453125 23.51171875 C8.75425781 23.37507813 9.36398438 23.2384375 9.9921875 23.09765625 C10.3221875 22.43765625 10.6521875 21.77765625 10.9921875 21.09765625 C10.0021875 21.09765625 9.0121875 21.09765625 7.9921875 21.09765625 C7.0021875 18.45765625 6.0121875 15.81765625 4.9921875 13.09765625 C4.6621875 14.08765625 4.3321875 15.07765625 3.9921875 16.09765625 C3.3321875 16.42765625 2.6721875 16.75765625 1.9921875 17.09765625 C1.8271875 17.75765625 1.6621875 18.41765625 1.4921875 19.09765625 C1.3271875 19.75765625 1.1621875 20.41765625 0.9921875 21.09765625 C0.3321875 21.42765625 -0.3278125 21.75765625 -1.0078125 22.09765625 C-1.3378125 23.08765625 -1.6678125 24.07765625 -2.0078125 25.09765625 C-2.9978125 25.09765625 -3.9878125 25.09765625 -5.0078125 25.09765625 C-5.0078125 23.77765625 -5.0078125 22.45765625 -5.0078125 21.09765625 C-5.9978125 21.42765625 -6.9878125 21.75765625 -8.0078125 22.09765625 C-8.6678125 22.09765625 -9.3278125 22.09765625 -10.0078125 22.09765625 C-10.0078125 29.35765625 -10.0078125 36.61765625 -10.0078125 44.09765625 C-7.6978125 44.42765625 -5.3878125 44.75765625 -3.0078125 45.09765625 C-2.6778125 45.75765625 -2.3478125 46.41765625 -2.0078125 47.09765625 C-6.2978125 47.09765625 -10.5878125 47.09765625 -15.0078125 47.09765625 C-18.59910501 39.91507123 -16.47114476 26.28154849 -14.06640625 18.90625 C-13.71707031 17.97941406 -13.36773437 17.05257813 -13.0078125 16.09765625 C-12.77723145 15.47133301 -12.54665039 14.84500977 -12.30908203 14.19970703 C-7.030854 -0.04040721 -7.030854 -0.04040721 0 0 Z " fill="#7642E5" transform="translate(158.0078125,259.90234375)"/>
<path d="M0 0 C3.61328125 0.03255208 7.2265625 0.06510417 10.83984375 0.09765625 C10.83984375 5.70765625 10.83984375 11.31765625 10.83984375 17.09765625 C12.48984375 16.76765625 14.13984375 16.43765625 15.83984375 16.09765625 C15.83984375 16.75765625 15.83984375 17.41765625 15.83984375 18.09765625 C16.49984375 18.42765625 17.15984375 18.75765625 17.83984375 19.09765625 C17.17984375 19.75765625 16.51984375 20.41765625 15.83984375 21.09765625 C15.37578125 22.36609375 15.37578125 22.36609375 14.90234375 23.66015625 C14.37640625 24.86671875 14.37640625 24.86671875 13.83984375 26.09765625 C12.84984375 26.42765625 11.85984375 26.75765625 10.83984375 27.09765625 C10.83984375 27.75765625 10.83984375 28.41765625 10.83984375 29.09765625 C11.82984375 29.42765625 12.81984375 29.75765625 13.83984375 30.09765625 C13.94816544 32.17983987 14.02557916 34.26364754 14.08984375 36.34765625 C14.13625 37.5078125 14.18265625 38.66796875 14.23046875 39.86328125 C13.83984375 43.09765625 13.83984375 43.09765625 12.30859375 45.50390625 C8.93547125 47.68149166 5.95995959 47.53786988 2.08984375 47.34765625 C1.39246094 47.32960938 0.69507813 47.3115625 -0.0234375 47.29296875 C-1.73627164 47.24604179 -3.44839449 47.1743023 -5.16015625 47.09765625 C-4.17015625 46.60265625 -4.17015625 46.60265625 -3.16015625 46.09765625 C-3.17490494 45.53611343 -3.18965363 44.97457062 -3.20484924 44.39601135 C-3.35679326 38.5729881 -3.50165737 32.74981981 -3.64233398 26.92651367 C-3.69583926 24.75068657 -3.7511749 22.5749037 -3.80834961 20.39916992 C-3.8900234 17.27923119 -3.96520157 14.15919472 -4.0390625 11.0390625 C-4.06609756 10.05990372 -4.09313263 9.08074493 -4.12098694 8.07191467 C-4.14108322 7.17105637 -4.1611795 6.27019806 -4.18188477 5.34204102 C-4.20187027 4.54484146 -4.22185577 3.74764191 -4.2424469 2.92628479 C-4.09714618 -0.30252738 -3.27827946 0.10130653 0 0 Z " fill="#7743E4" transform="translate(237.16015625,259.90234375)"/>
<path d="M0 0 C1.2077558 3.62326739 0.54311128 4.64146369 -1 8 C1.31 8.33 3.62 8.66 6 9 C5.67 9.99 5.34 10.98 5 12 C5.66 12.33 6.32 12.66 7 13 C6.34 15.31 5.68 17.62 5 20 C6.32 20 7.64 20 9 20 C9 20.99 9 21.98 9 23 C5.7 22.67 2.4 22.34 -1 22 C-1.33 25.3 -1.66 28.6 -2 32 C-2.66 32 -3.32 32 -4 32 C-4 32.66 -4 33.32 -4 34 C-5.485 34.495 -5.485 34.495 -7 35 C-7.33 34.67 -7.66 34.34 -8 34 C-9.155 33.835 -10.31 33.67 -11.5 33.5 C-15 33 -15 33 -16 32 C-16.27898825 28.36173954 -16.23177293 24.71019202 -16.25 21.0625 C-16.270625 20.03447266 -16.29125 19.00644531 -16.3125 17.94726562 C-16.31765625 16.96564453 -16.3228125 15.98402344 -16.328125 14.97265625 C-16.3374707 14.06781494 -16.34681641 13.16297363 -16.35644531 12.23071289 C-16.23881836 11.49457764 -16.12119141 10.75844238 -16 10 C-15.01 9.34 -14.02 8.68 -13 8 C-12.01 8.33 -11.02 8.66 -10 9 C-10 10.32 -10 11.64 -10 13 C-9.01 13 -8.02 13 -7 13 C-6.67 11.68 -6.34 10.36 -6 9 C-5.34 9 -4.68 9 -4 9 C-3.67 7.35 -3.34 5.7 -3 4 C-2.34 4 -1.68 4 -1 4 C-0.67 2.68 -0.34 1.36 0 0 Z " fill="#7742E5" transform="translate(163,272)"/>
<path d="M0 0 C1.08667969 0.01804687 2.17335938 0.03609375 3.29296875 0.0546875 C4.54013672 0.08949219 4.54013672 0.08949219 5.8125 0.125 C6.03777296 3.58245022 6.23983544 7.04087025 6.4375 10.5 C6.50195312 11.48484375 6.56640625 12.4696875 6.6328125 13.484375 C6.684375 14.42539062 6.7359375 15.36640625 6.7890625 16.3359375 C6.84143066 17.20524902 6.89379883 18.07456055 6.94775391 18.97021484 C6.8125 21.125 6.8125 21.125 4.8125 23.125 C2.6875 23.75 2.6875 23.75 0.8125 24.125 C1.3075 24.5375 1.8025 24.95 2.3125 25.375 C3.8125 27.125 3.8125 27.125 3.8125 31.125 C4.4725 31.125 5.1325 31.125 5.8125 31.125 C7.35881384 34.21762767 7.20310716 37.4920891 7.43359375 40.91015625 C7.62115234 42.00650391 7.62115234 42.00650391 7.8125 43.125 C10.10879994 44.27314997 11.88948086 44.43269809 14.4375 44.6875 C15.25476563 44.77128906 16.07203125 44.85507812 16.9140625 44.94140625 C17.85378906 45.03228516 17.85378906 45.03228516 18.8125 45.125 C18.8125 45.455 18.8125 45.785 18.8125 46.125 C13.8625 46.125 8.9125 46.125 3.8125 46.125 C3.9053125 44.1140625 3.9053125 44.1140625 4 42.0625 C3.31901683 34.2591027 -2.27362641 28.6157903 -7.08007812 22.79736328 C-9.72794163 18.79871579 -9.40194279 14.14021652 -9.4375 9.5 C-9.458125 8.819375 -9.47875 8.13875 -9.5 7.4375 C-9.515625 5.4609375 -9.515625 5.4609375 -9.1875 2.125 C-5.66070901 -0.22619399 -4.15870515 -0.08943452 0 0 Z " fill="#7842E6" transform="translate(365.1875,260.875)"/>
<path d="M0 0 C0 3 0 3 -2 6 C2.29 6.33 6.58 6.66 11 7 C11 12.94 11 18.88 11 25 C11.66 25.33 12.32 25.66 13 26 C11.68 26.33 10.36 26.66 9 27 C9 21.39 9 15.78 9 10 C5.16375 10.2165625 5.16375 10.2165625 1.25 10.4375 C0.45110352 10.48060303 -0.34779297 10.52370605 -1.17089844 10.56811523 C-4.56848441 10.77051551 -7.7213586 11.10379549 -11 12 C-10.814375 12.928125 -10.62875 13.85625 -10.4375 14.8125 C-10 18 -10 18 -11 21 C-11.99 21 -12.98 21 -14 21 C-14.495 16.05 -14.495 16.05 -15 11 C-22.92 10.67 -30.84 10.34 -39 10 C-38.67 9.34 -38.34 8.68 -38 8 C-32.96803505 6.74992066 -27.90026294 6.85007937 -22.75 6.875 C-21.9353125 6.87113281 -21.120625 6.86726563 -20.28125 6.86328125 C-14.25347799 6.873261 -14.25347799 6.873261 -12 8 C-12 8.99 -12 9.98 -12 11 C-5.82747447 5.68570186 -5.82747447 5.68570186 0 0 Z " fill="#4A2CDB" transform="translate(239,250)"/>
<path d="M0 0 C0.83402344 -0.00386719 1.66804687 -0.00773437 2.52734375 -0.01171875 C3.82865234 0.00568359 3.82865234 0.00568359 5.15625 0.0234375 C6.02378906 0.01183594 6.89132813 0.00023437 7.78515625 -0.01171875 C9.03619141 -0.00591797 9.03619141 -0.00591797 10.3125 0 C11.45428711 0.00507568 11.45428711 0.00507568 12.61914062 0.01025391 C15.20675486 0.50333955 16.03682939 1.35453466 17.65625 3.3984375 C18.74852085 5.63578618 19.76168072 7.91250257 20.71875 10.2109375 C21.22535156 11.41363281 21.73195312 12.61632812 22.25390625 13.85546875 C22.71667969 15.02464844 23.17945313 16.19382812 23.65625 17.3984375 C24.23246094 18.74228516 24.23246094 18.74228516 24.8203125 20.11328125 C26.09133383 25.10827628 25.98469051 30.01559427 25.96875 35.1484375 C25.98486328 36.20160156 26.00097656 37.25476563 26.01757812 38.33984375 C26.01822266 39.34402344 26.01886719 40.34820312 26.01953125 41.3828125 C26.02251221 42.29772461 26.02549316 43.21263672 26.02856445 44.15527344 C25.90570068 44.89551758 25.78283691 45.63576172 25.65625 46.3984375 C24.66625 47.0584375 23.67625 47.7184375 22.65625 48.3984375 C22.66261475 47.77090576 22.66897949 47.14337402 22.67553711 46.49682617 C22.72069811 31.47189747 21.04595048 19.0705172 14.65625 5.3984375 C13.03844843 3.78063593 11.19989482 4.17571603 8.96484375 4.08203125 C8.02060547 4.04013672 7.07636719 3.99824219 6.10351562 3.95507812 C5.11029297 3.91576172 4.11707031 3.87644531 3.09375 3.8359375 C2.09666016 3.79275391 1.09957031 3.74957031 0.07226562 3.70507812 C-2.3995915 3.59863452 -4.8715531 3.49661822 -7.34375 3.3984375 C-5.00839573 0.59434161 -3.62600827 0.016119 0 0 Z " fill="#36CBED" transform="translate(161.34375,256.6015625)"/>
<path d="M0 0 C0.66 0.33 1.32 0.66 2 1 C2 15.85 2 30.7 2 46 C1.34 46 0.68 46 0 46 C-0.84327749 37.64251778 -1.12190678 29.39802254 -1 21 C-1.66 21 -2.32 21 -3 21 C-4.32 18.69 -5.64 16.38 -7 14 C-9.64 14 -12.28 14 -15 14 C-15 13.67 -15 13.34 -15 13 C-11.12315913 11.80712589 -8.08378077 11 -4 11 C-4 8.03 -4 5.06 -4 2 C-2.68 1.34 -1.36 0.68 0 0 Z " fill="#6513E9" transform="translate(232,260)"/>
<path d="M0 0 C0.9796875 -0.00257813 1.959375 -0.00515625 2.96875 -0.0078125 C5.5 0.125 5.5 0.125 7.5 1.125 C8.27663866 13.02113185 8.68521622 21.64212755 0.5 31.125 C-0.58667969 32.34316406 -0.58667969 32.34316406 -1.6953125 33.5859375 C-3.7147571 36.42714744 -4.0118425 37.93912671 -4.125 41.375 C-4.2265625 44.015625 -4.2265625 44.015625 -4.5 46.125 C-5.49 46.62 -5.49 46.62 -6.5 47.125 C-6.5 43.165 -6.5 39.205 -6.5 35.125 C-5.84 35.125 -5.18 35.125 -4.5 35.125 C-4.4175 34.58875 -4.335 34.0525 -4.25 33.5 C-3.22418729 30.25159309 -1.53436106 27.83748141 0.5 25.125 C1.16 25.125 1.82 25.125 2.5 25.125 C2.5 18.195 2.5 11.265 2.5 4.125 C-0.8 4.125 -4.1 4.125 -7.5 4.125 C-7.5 3.135 -7.5 2.145 -7.5 1.125 C-4.89080172 -0.17959914 -2.91057385 -0.0076594 0 0 Z " fill="#5E69DA" transform="translate(392.5,256.875)"/>
<path d="M0 0 C4.62 0 9.24 0 14 0 C14.33 0.66 14.66 1.32 15 2 C14.0390625 4.4609375 14.0390625 4.4609375 12.625 7.375 C11.08278435 10.57143579 9.71047717 13.51370506 9 17 C9.78375 17.2475 10.5675 17.495 11.375 17.75 C14.45772572 19.21796463 14.82345258 19.88286056 16 23 C16.22705078 25.47363281 16.22705078 25.47363281 16.1953125 28.203125 C16.18886719 29.1828125 16.18242187 30.1625 16.17578125 31.171875 C16.15902344 32.18765625 16.14226562 33.2034375 16.125 34.25 C16.11597656 35.28125 16.10695313 36.3125 16.09765625 37.375 C16.07412011 39.91690287 16.04124023 42.4583328 16 45 C14.02 45.495 14.02 45.495 12 46 C11.99589111 45.34926514 11.99178223 44.69853027 11.98754883 44.02807617 C11.95465827 41.08029254 11.88402238 38.13458866 11.8125 35.1875 C11.80669922 34.16333984 11.80089844 33.13917969 11.79492188 32.08398438 C11.71274317 29.2990395 11.5967412 26.72245192 11 24 C8.65748383 21.69478519 8.65748383 21.69478519 6 21 C6.47122748 14.0886636 9.20636006 8.27795839 12 2 C8.04 2 4.08 2 0 2 C0 1.34 0 0.68 0 0 Z " fill="#4179E8" transform="translate(260,258)"/>
<path d="M0 0 C1.32 0 2.64 0 4 0 C4.049377 4.52065428 4.08570823 9.04115217 4.10986328 13.56201172 C4.11993118 15.10045098 4.13358646 16.63887107 4.15087891 18.17724609 C4.17509317 20.38644133 4.18647491 22.59538395 4.1953125 24.8046875 C4.20563507 25.49432587 4.21595764 26.18396423 4.22659302 26.89450073 C4.22699478 28.59800906 4.12191026 30.30085943 4 32 C3.34 32.66 2.68 33.32 2 34 C-0.125 33.625 -0.125 33.625 -2 33 C-1.85903487 29.37479395 -1.71131601 25.74989159 -1.5625 22.125 C-1.52318359 21.11179687 -1.48386719 20.09859375 -1.44335938 19.0546875 C-1.17743851 12.67258664 -0.71710563 6.34748471 0 0 Z " fill="#4E82E7" transform="translate(126,272)"/>
<path d="M0 0 C6.03331362 4.98404168 11.5184171 10.41915303 17 16 C12.3908992 16 9.42001754 13.32534971 6.125 10.25 C5.75375 9.8375 5.3825 9.425 5 9 C4.67 9.66 4.34 10.32 4 11 C3.34 9.02 2.68 7.04 2 5 C1.34 5.66 0.68 6.32 0 7 C0 7.99 0 8.98 0 10 C-6.75 14 -6.75 14 -9 14 C-8.835 14.969375 -8.67 15.93875 -8.5 16.9375 C-7.86603727 21.29487763 -7.9103328 25.60630704 -8 30 C-10.95649207 27.04350793 -11.19262409 24.33149756 -11.3125 20.3125 C-11.20391803 12.8420607 -8.42003748 8.23295883 -3.25 3 C-2.17640225 1.98955506 -1.0964637 0.98558535 0 0 Z " fill="#5B20D8" transform="translate(152,188)"/>
<path d="M0 0 C0.66 0 1.32 0 2 0 C3.13019427 2.26038854 3.15268957 3.57118826 3.20532227 6.08251953 C3.22526749 6.92324005 3.24521271 7.76396057 3.26576233 8.63015747 C3.29083107 9.99272171 3.29083107 9.99272171 3.31640625 11.3828125 C3.33718735 12.31221649 3.35796844 13.24162048 3.37937927 14.19918823 C3.44487646 17.1743821 3.50376052 20.14966577 3.5625 23.125 C3.60568506 25.13933228 3.64929934 27.15365541 3.69335938 29.16796875 C3.80055803 34.11188663 3.90182501 39.05589503 4 44 C7.3 44 10.6 44 14 44 C14 44.33 14 44.66 14 45 C11.85423363 45.02685938 9.70837355 45.04633088 7.5625 45.0625 C6.36753906 45.07410156 5.17257812 45.08570313 3.94140625 45.09765625 C1 45 1 45 0 44 C-0.0927833 42.61839885 -0.11747043 41.23211962 -0.11352539 39.84741211 C-0.11341209 38.52615578 -0.11341209 38.52615578 -0.11329651 37.1782074 C-0.10555458 35.74227989 -0.10555458 35.74227989 -0.09765625 34.27734375 C-0.0962413 33.30213272 -0.09482635 32.32692169 -0.09336853 31.32215881 C-0.08775133 28.19390857 -0.07519593 25.06572877 -0.0625 21.9375 C-0.05748722 19.82226666 -0.05292393 17.70703219 -0.04882812 15.59179688 C-0.03777631 10.39450704 -0.02102146 5.19725855 0 0 Z " fill="#B22DDF" transform="translate(318,262)"/>
<path d="M0 0 C0.74382431 0.00920975 1.48764862 0.01841949 2.25401306 0.02790833 C3.40582314 0.02716057 3.40582314 0.02716057 4.5809021 0.02639771 C6.20235282 0.02873624 7.82380729 0.03845188 9.44517517 0.05500793 C11.93191324 0.07863548 14.41758165 0.07556334 16.90440369 0.06892395 C18.47927989 0.07449964 20.05415157 0.08160883 21.62901306 0.09040833 C22.3748616 0.08949692 23.12071014 0.08858551 23.88916016 0.08764648 C29.14406391 0.16014667 29.14406391 0.16014667 31.37510681 2.39118958 C31.57041931 4.77400208 31.57041931 4.77400208 31.50010681 7.51618958 C31.48205994 8.4262677 31.46401306 9.33634583 31.44541931 10.27400208 C31.42221619 10.97267395 31.39901306 11.67134583 31.37510681 12.39118958 C30.71510681 12.39118958 30.05510681 12.39118958 29.37510681 12.39118958 C28.37510681 10.39118958 28.37510681 10.39118958 28.37510681 3.39118958 C16.16510681 3.39118958 3.95510681 3.39118958 -8.62489319 3.39118958 C-5.33714398 0.10344037 -4.43149795 0.03977105 0 0 Z " fill="#36D8F0" transform="translate(110.62489318847656,256.6088104248047)"/>
<path d="M0 0 C1.45599609 0.00966797 1.45599609 0.00966797 2.94140625 0.01953125 C5.4375 0.1875 5.4375 0.1875 7.4375 1.1875 C7.69952189 3.62906757 7.85910855 5.98891997 7.9375 8.4375 C8.088202 13.0383435 8.41134037 16.97178077 10.4375 21.1875 C11.0975 21.1875 11.7575 21.1875 12.4375 21.1875 C12.4375 22.1775 12.4375 23.1675 12.4375 24.1875 C9.50100648 23.87287569 8.46499742 23.21499742 6.34375 21.09375 C3.99749148 17.51666734 3.84622294 15.12083853 3.6875 10.875 C3.63078125 9.62074219 3.5740625 8.36648438 3.515625 7.07421875 C3.48984375 6.12160156 3.4640625 5.16898437 3.4375 4.1875 C1.4787957 4.32826315 -0.47946093 4.4752676 -2.4375 4.625 C-4.07332031 4.74681641 -4.07332031 4.74681641 -5.7421875 4.87109375 C-8.50978971 5.01751703 -8.50978971 5.01751703 -10.5625 6.1875 C-8.26515091 0.88592517 -5.60552688 -0.08210492 0 0 Z " fill="#3F7BDC" transform="translate(367.5625,256.8125)"/>
<path d="M0 0 C0.66 0 1.32 0 2 0 C2.3732988 4.35515272 1.27682292 6.35708332 -1 10 C-1.70670728 12.69254991 -1.70670728 12.69254991 -2 15 C-2.66 15 -3.32 15 -4 15 C-4 24.24 -4 33.48 -4 43 C-0.7 43 2.6 43 6 43 C6 43.33 6 43.66 6 44 C1.71 44 -2.58 44 -7 44 C-10.63024126 36.73951748 -8.40962209 23.11707875 -6 15.6796875 C-5.67 14.79539062 -5.34 13.91109375 -5 13 C-4.566875 11.82695312 -4.13375 10.65390625 -3.6875 9.4453125 C-2.49052923 6.28286131 -1.26179851 3.13704058 0 0 Z " fill="#BB2EDE" transform="translate(150,263)"/>
<path d="M0 0 C2.66184973 2.66184973 3.10848803 5.34187787 4.12109375 8.90625 C4.91769717 11.34415648 4.91769717 11.34415648 8 13 C8 14.32 8 15.64 8 17 C8.66 17 9.32 17 10 17 C10 17.66 10 18.32 10 19 C10.66 19 11.32 19 12 19 C12 19.66 12 20.32 12 21 C12.99 21 13.98 21 15 21 C16.54631384 24.09262767 16.39060716 27.3670891 16.62109375 30.78515625 C16.74613281 31.51605469 16.87117188 32.24695313 17 33 C19.29629994 34.14814997 21.07698086 34.30769809 23.625 34.5625 C24.44226563 34.64628906 25.25953125 34.73007812 26.1015625 34.81640625 C27.04128906 34.90728516 27.04128906 34.90728516 28 35 C28 35.33 28 35.66 28 36 C23.05 36 18.1 36 13 36 C13.0928125 33.9890625 13.0928125 33.9890625 13.1875 31.9375 C12.50651683 24.1341027 6.91387359 18.4907903 2.10742188 12.67236328 C-0.49038401 8.74930987 -0.08789596 4.57059009 0 0 Z " fill="#C930E5" transform="translate(356,271)"/>
<path d="M0 0 C2 1 2 1 3 2 C3.14193337 5.00331018 3.04236378 7.99217134 3 11 C6.63 11 10.26 11 14 11 C14 21.56 14 32.12 14 43 C14.66 43 15.32 43 16 43 C16 43.66 16 44.32 16 45 C15.01 45 14.02 45 13 45 C11.53901155 42.0780231 11.88865099 39.50106525 11.90234375 36.2421875 C11.9037587 35.57913605 11.90517365 34.91608459 11.90663147 34.23294067 C11.91223246 32.11358137 11.924785 29.99432741 11.9375 27.875 C11.94251488 26.43880361 11.94707781 25.00260556 11.95117188 23.56640625 C11.96220218 20.04423655 11.97946741 16.52212855 12 13 C11.21753906 13.01160156 10.43507813 13.02320313 9.62890625 13.03515625 C8.61699219 13.04417969 7.60507813 13.05320312 6.5625 13.0625 C5.55316406 13.07410156 4.54382813 13.08570313 3.50390625 13.09765625 C1 13 1 13 0 12 C-0.07244053 9.98035801 -0.08377188 7.95832876 -0.0625 5.9375 C-0.05347656 4.83277344 -0.04445313 3.72804688 -0.03515625 2.58984375 C-0.02355469 1.73519531 -0.01195313 0.88054687 0 0 Z " fill="#B62FDC" transform="translate(99,261)"/>
<path d="M0 0 C1.30130859 -0.01224609 2.60261719 -0.02449219 3.94335938 -0.03710938 C5.81024414 -0.04000977 5.81024414 -0.04000977 7.71484375 -0.04296875 C8.85945068 -0.04707764 10.00405762 -0.05118652 11.18334961 -0.05541992 C14.0625 0.1875 14.0625 0.1875 17.0625 2.1875 C17.35546875 4.5703125 17.35546875 4.5703125 17.25 7.3125 C17.20939453 8.67761719 17.20939453 8.67761719 17.16796875 10.0703125 C17.13316406 10.76898438 17.09835937 11.46765625 17.0625 12.1875 C16.0725 12.5175 15.0825 12.8475 14.0625 13.1875 C14.0625 9.8875 14.0625 6.5875 14.0625 3.1875 C4.1625 3.1875 -5.7375 3.1875 -15.9375 3.1875 C-15.9375 2.5275 -15.9375 1.8675 -15.9375 1.1875 C-11.37493942 -1.09378029 -5.00942821 0.00247379 0 0 Z " fill="#36CAEC" transform="translate(297.9375,256.8125)"/>
<path d="M0 0 C1.18013672 0.0093457 2.36027344 0.01869141 3.57617188 0.02832031 C5.50396484 0.03605469 5.50396484 0.03605469 7.47070312 0.04394531 C8.13924316 0.05425781 8.8077832 0.06457031 9.49658203 0.07519531 C11.53762135 0.10633393 13.57788734 0.11616647 15.61914062 0.12207031 C25.58161573 0.20200993 25.58161573 0.20200993 29.04492188 1.35644531 C29.04492188 3.99644531 29.04492188 6.63644531 29.04492188 9.35644531 C28.38492188 9.68644531 27.72492188 10.01644531 27.04492188 10.35644531 C26.54992187 7.38644531 26.54992187 7.38644531 26.04492188 4.35644531 C15.48492187 4.02644531 4.92492187 3.69644531 -5.95507812 3.35644531 C-2.95507812 0.35644531 -2.95507812 0.35644531 0 0 Z " fill="#37D2F0" transform="translate(326.955078125,256.6435546875)"/>
<path d="M0 0 C-1.31769721 6.31314633 -5.13081893 9.59640695 -9.625 13.875 C-10.33140625 14.56335938 -11.0378125 15.25171875 -11.765625 15.9609375 C-13.50168231 17.65007434 -15.24638373 19.32913151 -17 21 C-18.16512384 17.50462849 -19 14.6959107 -19 11 C-17.17806158 9.0750353 -15.10764717 7.62464469 -13 6 C-12.67 6.99 -12.34 7.98 -12 9 C-11.401875 8.67 -10.80375 8.34 -10.1875 8 C-8 7 -8 7 -5 7 C-5 5.68 -5 4.36 -5 3 C-2.64285714 0 -2.64285714 0 0 0 Z " fill="#5C19E0" transform="translate(357,171)"/>
<path d="M0 0 C1.258125 -0.04125 2.51625 -0.0825 3.8125 -0.125 C4.52019531 -0.14820313 5.22789062 -0.17140625 5.95703125 -0.1953125 C8 0 8 0 11 2 C11 2.66 11 3.32 11 4 C11.66 4 12.32 4 13 4 C12.42415568 6.38564077 11.77772405 8.66682784 11 11 C14.3 11 17.6 11 21 11 C21 11.66 21 12.32 21 13 C16.05 13 11.1 13 6 13 C5.67 9.7 5.34 6.4 5 3 C3.35 2.67 1.7 2.34 0 2 C0 1.34 0 0.68 0 0 Z " fill="#8E3BDA" transform="translate(162,294)"/>
<path d="M0 0 C0.66 0 1.32 0 2 0 C2.33 5.94 2.66 11.88 3 18 C5.31 18.66 7.62 19.32 10 20 C11 21 11 21 11.09765625 23.28515625 C11.08605469 24.20167969 11.07445312 25.11820312 11.0625 26.0625 C11.05347656 26.98160156 11.04445313 27.90070313 11.03515625 28.84765625 C11.02355469 29.55792969 11.01195312 30.26820313 11 31 C10.01 31.33 9.02 31.66 8 32 C8 28.7 8 25.4 8 22 C5.36 22 2.72 22 0 22 C0 14.74 0 7.48 0 0 Z " fill="#37C0EC" transform="translate(304,272)"/>
<path d="M0 0 C3.73273164 3.88826213 3 4.8089243 3 11 C11.91 11 20.82 11 30 11 C28 13 28 13 25.11083984 13.22705078 C23.90637207 13.21657715 22.7019043 13.20610352 21.4609375 13.1953125 C19.50800781 13.18564453 19.50800781 13.18564453 17.515625 13.17578125 C16.13541405 13.15906929 14.75520571 13.14213939 13.375 13.125 C11.98698548 13.11497006 10.59896411 13.10584423 9.2109375 13.09765625 C5.80711974 13.07401863 2.40364494 13.04106867 -1 13 C-1.02686553 11.02090602 -1.04633375 9.04171029 -1.0625 7.0625 C-1.07410156 5.96035156 -1.08570313 4.85820312 -1.09765625 3.72265625 C-1 1 -1 1 0 0 Z " fill="#953ECF" transform="translate(190,294)"/>
<path d="M0 0 C3 1 3 1 4.16796875 3.328125 C5.33741375 8.48905599 5.32888232 13.47489374 5.3125 18.75 C5.32861328 19.80316406 5.34472656 20.85632813 5.36132812 21.94140625 C5.36229492 23.44767578 5.36229492 23.44767578 5.36328125 24.984375 C5.36626221 25.89928711 5.36924316 26.81419922 5.37231445 27.75683594 C5.1880188 28.86720215 5.1880188 28.86720215 5 30 C4.01 30.66 3.02 31.32 2 32 C1.96241577 30.97229492 1.96241577 30.97229492 1.92407227 29.92382812 C1.80714393 26.7824065 1.68486126 23.64121452 1.5625 20.5 C1.52318359 19.42234375 1.48386719 18.3446875 1.44335938 17.234375 C1.21341951 11.43281536 0.83001269 5.74731473 0 0 Z " fill="#39AAEA" transform="translate(182,273)"/>
<path d="M0 0 C4.62 0 9.24 0 14 0 C14.33 0.66 14.66 1.32 15 2 C14.0390625 4.4609375 14.0390625 4.4609375 12.625 7.375 C11.08278435 10.57143579 9.71047717 13.51370506 9 17 C10.175625 17.3403125 10.175625 17.3403125 11.375 17.6875 C14 19 14 19 15.4375 21.375 C16 24 16 24 15.125 26.3125 C14.75375 26.869375 14.3825 27.42625 14 28 C13.608125 27.071875 13.21625 26.14375 12.8125 25.1875 C10.87177384 21.77449882 9.46981059 20.68801596 6 19 C6.65503282 14.94180817 7.94559121 11.46028718 9.5625 7.6875 C10.01753906 6.61886719 10.47257812 5.55023438 10.94140625 4.44921875 C11.29074219 3.64097656 11.64007813 2.83273437 12 2 C8.04 2 4.08 2 0 2 C0 1.34 0 0.68 0 0 Z " fill="#47BDF2" transform="translate(260,258)"/>
<path d="M0 0 C0.66 0 1.32 0 2 0 C2.33 2.97 2.66 5.94 3 9 C5.64 9 8.28 9 11 9 C11 15.27 11 21.54 11 28 C10.01 27.67 9.02 27.34 8 27 C8 21.72 8 16.44 8 11 C5.69 11 3.38 11 1 11 C0 10 0 10 -0.09765625 7.71484375 C-0.08605469 6.79832031 -0.07445312 5.88179688 -0.0625 4.9375 C-0.05347656 4.01839844 -0.04445313 3.09929687 -0.03515625 2.15234375 C-0.02355469 1.44207031 -0.01195312 0.73179687 0 0 Z " fill="#B52DEA" transform="translate(279,263)"/>
<path d="M0 0 C0.8146875 -0.00386719 1.629375 -0.00773437 2.46875 -0.01171875 C8.49652201 -0.001739 8.49652201 -0.001739 10.75 1.125 C10.75 4.755 10.75 8.385 10.75 12.125 C9.76 12.62 9.76 12.62 8.75 13.125 C8.42 10.155 8.09 7.185 7.75 4.125 C-0.17 3.795 -8.09 3.465 -16.25 3.125 C-15.92 2.465 -15.59 1.805 -15.25 1.125 C-10.21803505 -0.12507934 -5.15026294 -0.02492063 0 0 Z " fill="#3BC2F1" transform="translate(216.25,256.875)"/>
<path d="M0 0 C0.66 0 1.32 0 2 0 C2 0.66 2 1.32 2 2 C3.134375 1.938125 4.26875 1.87625 5.4375 1.8125 C11.50495408 1.83405401 16.80291697 3.2316161 21.5625 7.0625 C23.65880756 11.34625894 23.32746381 15.31544825 23 20 C22.34 20 21.68 20 21 20 C20.92265625 18.98679687 20.92265625 18.98679687 20.84375 17.953125 C20.27301586 12.74105192 20.27301586 12.74105192 17.47265625 8.515625 C12.08604196 5.6515765 5.98018421 4.83546691 0 4 C0 2.68 0 1.36 0 0 Z " fill="#42C1FC" transform="translate(206,272)"/>
<path d="M0 0 C0.66 0 1.32 0 2 0 C2 14.52 2 29.04 2 44 C1.34 44 0.68 44 0 44 C-1.01374001 34.17021022 -0.96681797 24.53511906 -0.5625 14.6875 C-0.50909215 13.25328013 -0.45635422 11.81903515 -0.40429688 10.38476562 C-0.2772203 6.9228545 -0.14119536 3.46136752 0 0 Z " fill="#C61EF4" transform="translate(232,262)"/>
<path d="M0 0 C2 1 2 1 2.96484375 3.4765625 C3.28582031 4.51554687 3.60679687 5.55453125 3.9375 6.625 C4.97379012 9.95623221 5.98987858 12.98028068 7.5859375 16.08984375 C9.91675924 21.39979526 9.57405468 27.23606233 9.6875 32.9375 C9.73874023 34.67870117 9.73874023 34.67870117 9.79101562 36.45507812 C9.87306285 39.30328882 9.94235536 42.15120839 10 45 C9.34 45 8.68 45 8 45 C7.67 36.09 7.34 27.18 7 18 C6.01 18.33 5.02 18.66 4 19 C3.67 20.98 3.34 22.96 3 25 C1.5 23.6875 1.5 23.6875 0 22 C0 21.01 0 20.02 0 19 C0.66 19 1.32 19 2 19 C3.12129394 12.92069552 3.20294346 9.50906276 0 4 C0 2.68 0 1.36 0 0 Z M-1 24 C1 25 1 25 1 25 Z " fill="#5A55DF" transform="translate(175,261)"/>
<path d="M0 0 C2.46278801 2.46278801 2.99771255 4.70676982 4 8 C4.66 8 5.32 8 6 8 C6 11.96 6 15.92 6 20 C5.34 20 4.68 20 4 20 C3.67 21.98 3.34 23.96 3 26 C2.34 25.67 1.68 25.34 1 25 C1 20.38 1 15.76 1 11 C1.33 11 1.66 11 2 11 C2 13.64 2 16.28 2 19 C2.66 19 3.32 19 4 19 C3.86127227 12.07997849 3.86127227 12.07997849 0.875 6 C-2.4877307 3.66070907 -5.02187656 2.85802662 -9 2 C-9 1.67 -9 1.34 -9 1 C-7.54364629 0.77825067 -6.08477044 0.57301302 -4.625 0.375 C-3.40683594 0.20097656 -3.40683594 0.20097656 -2.1640625 0.0234375 C-1.44992188 0.01570313 -0.73578125 0.00796875 0 0 Z " fill="#3D2DDA" transform="translate(225,273)"/>
<path d="M0 0 C0.66 0 1.32 0 2 0 C2.06058594 1.19238281 2.12117187 2.38476562 2.18359375 3.61328125 C2.26801149 5.17969925 2.35265887 6.74610488 2.4375 8.3125 C2.47681641 9.09818359 2.51613281 9.88386719 2.55664062 10.69335938 C2.59853516 11.45068359 2.64042969 12.20800781 2.68359375 12.98828125 C2.72025146 13.68477783 2.75690918 14.38127441 2.79467773 15.09887695 C2.95581153 17.2216572 2.95581153 17.2216572 4 20 C4.66 20 5.32 20 6 20 C6 20.66 6 21.32 6 22 C8.64 22.33 11.28 22.66 14 23 C14 23.33 14 23.66 14 24 C8.77825222 24.31330487 5.42308959 23.88015136 1 21 C-1.44691561 17.47015891 -1.23604168 14.13414853 -1.1875 9.9375 C-1.18105469 8.70902344 -1.17460937 7.48054688 -1.16796875 6.21484375 C-1 3 -1 3 0 0 Z " fill="#BB31E2" transform="translate(190,266)"/>
<path d="M0 0 C2.31 0 4.62 0 7 0 C9.15059309 3.53186832 9.3797728 6.66287993 9.625 10.75 C9.69976562 11.92046875 9.77453125 13.0909375 9.8515625 14.296875 C9.90054687 15.18890625 9.94953125 16.0809375 10 17 C12.97 17.33 15.94 17.66 19 18 C19 18.33 19 18.66 19 19 C14.71 19 10.42 19 6 19 C6 13.72 6 8.44 6 3 C3.03 2.505 3.03 2.505 0 2 C0 1.34 0 0.68 0 0 Z " fill="#B240D3" transform="translate(251,288)"/>
<path d="M0 0 C0.9796875 -0.00257813 1.959375 -0.00515625 2.96875 -0.0078125 C5.5 0.125 5.5 0.125 7.5 1.125 C7.5 7.395 7.5 13.665 7.5 20.125 C6.84 20.125 6.18 20.125 5.5 20.125 C5.17 14.845 4.84 9.565 4.5 4.125 C0.54 3.795 -3.42 3.465 -7.5 3.125 C-7.5 2.465 -7.5 1.805 -7.5 1.125 C-4.89080172 -0.17959914 -2.91057385 -0.0076594 0 0 Z " fill="#36CCED" transform="translate(392.5,256.875)"/>
<path d="M0 0 C0.66 1.32 1.32 2.64 2 4 C3.03060547 3.98259766 3.03060547 3.98259766 4.08203125 3.96484375 C4.98308594 3.95582031 5.88414062 3.94679688 6.8125 3.9375 C7.70582031 3.92589844 8.59914063 3.91429687 9.51953125 3.90234375 C12 4 12 4 15 5 C16.12256131 7.24512262 16.13413762 8.51456649 16.125 11 C16.12886719 12.051875 16.12886719 12.051875 16.1328125 13.125 C16 15 16 15 15 17 C14.34 17 13.68 17 13 17 C13 13.37 13 9.74 13 6 C11.68 6.33 10.36 6.66 9 7 C7.41788427 7.06548492 5.83329919 7.08578381 4.25 7.0625 C3.45078125 7.05347656 2.6515625 7.04445313 1.828125 7.03515625 C1.22484375 7.02355469 0.6215625 7.01195312 0 7 C0 4.69 0 2.38 0 0 Z " fill="#3D9AF0" transform="translate(335,272)"/>
<path d="M0 0 C0.66 0.33 1.32 0.66 2 1 C1.67 2.32 1.34 3.64 1 5 C2.65 5 4.3 5 6 5 C-0.15034169 12.48291572 -0.15034169 12.48291572 -4 15 C-4 13.35 -4 11.7 -4 10 C-3.34 10 -2.68 10 -2 10 C-2.66 9.67 -3.32 9.34 -4 9 C-4 8.34 -4 7.68 -4 7 C-4.66 6.67 -5.32 6.34 -6 6 C-4 4 -2 2 0 0 Z " fill="#5A1ADB" transform="translate(311,209)"/>
<path d="M0 0 C0.66 0.33 1.32 0.66 2 1 C1.67 2.32 1.34 3.64 1 5 C2.65 5 4.3 5 6 5 C-0.15034169 12.48291572 -0.15034169 12.48291572 -4 15 C-4 14.01 -4 13.02 -4 12 C-3.34 11.67 -2.68 11.34 -2 11 C-3.32 9.35 -4.64 7.7 -6 6 C-4 4 -2 2 0 0 Z " fill="#5B1BDB" transform="translate(295,225)"/>
<path d="M0 0 C4.62 0 9.24 0 14 0 C14 5.61 14 11.22 14 17 C14.66 17.33 15.32 17.66 16 18 C14.68 18.33 13.36 18.66 12 19 C12 13.39 12 7.78 12 2 C8.04 2 4.08 2 0 2 C0 1.34 0 0.68 0 0 Z " fill="#3EC9FC" transform="translate(236,258)"/>
<path d="M0 0 C5.43733055 4.52991796 10.46458931 9.34294216 15.4375 14.375 C16.16904297 15.11105469 16.90058594 15.84710938 17.65429688 16.60546875 C19.43852723 18.40136074 21.22036124 20.19955985 23 22 C19.79604584 22 17.90600261 21.25664978 15 20 C15 18.68 15 17.36 15 16 C13.35 15.67 11.7 15.34 10 15 C9.67 13.68 9.34 12.36 9 11 C8.34 11 7.68 11 7 11 C5.98648336 9.34151823 4.98879205 7.67334039 4 6 C3.278125 5.278125 2.55625 4.55625 1.8125 3.8125 C1.214375 3.214375 0.61625 2.61625 0 2 C0 1.34 0 0.68 0 0 Z " fill="#5726C5" transform="translate(169,205)"/>
<path d="M0 0 C0.99 0 1.98 0 3 0 C3 0.66 3 1.32 3 2 C3.66 2 4.32 2 5 2 C5 2.66 5 3.32 5 4 C5.99 4 6.98 4 8 4 C8.474375 4.804375 8.94875 5.60875 9.4375 6.4375 C10.73355856 9.1578895 10.73355856 9.1578895 13.1875 9.8125 C13.785625 9.874375 14.38375 9.93625 15 10 C15 9.34 15 8.68 15 8 C15.66 8 16.32 8 17 8 C17 7.34 17 6.68 17 6 C17.66 6 18.32 6 19 6 C19.33 4.68 19.66 3.36 20 2 C21.32 2.33 22.64 2.66 24 3 C20.7 6.3 17.4 9.6 14 13 C10.00411862 11.00205931 7.85247487 9.08986847 4.75 5.9375 C3.85796875 5.03902344 2.9659375 4.14054688 2.046875 3.21484375 C0 1 0 1 0 0 Z " fill="#825BDE" transform="translate(214,225)"/>
<path d="M0 0 C12.21 0 24.42 0 37 0 C37.66 3.63 38.32 7.26 39 11 C38.01 11.33 37.02 11.66 36 12 C36 9.03 36 6.06 36 3 C35.34 3 34.68 3 34 3 C34 2.34 34 1.68 34 1 C22.78 1 11.56 1 0 1 C0 0.67 0 0.34 0 0 Z " fill="#495DD9" transform="translate(102,260)"/>
<path d="M0 0 C4.31278385 0.13811922 8.62513953 0.28678109 12.9375 0.4375 C14.78504883 0.49647461 14.78504883 0.49647461 16.66992188 0.55664062 C17.83974609 0.59853516 19.00957031 0.64042969 20.21484375 0.68359375 C21.84087524 0.73858032 21.84087524 0.73858032 23.49975586 0.79467773 C26 1 26 1 27 2 C27.07179964 3.51928038 27.08392007 5.04167482 27.0625 6.5625 C27.05347656 7.38878906 27.04445312 8.21507812 27.03515625 9.06640625 C27.02355469 9.70449219 27.01195312 10.34257812 27 11 C26.34 11 25.68 11 25 11 C25 8.03 25 5.06 25 2 C14.605 2.495 14.605 2.495 4 3 C4 3.33 4 3.66 4 4 C2.02 4 0.04 4 -2 4 C-1.34 2.68 -0.68 1.36 0 0 Z " fill="#4461DF" transform="translate(198,259)"/>
<path d="M0 0 C0.66 0.33 1.32 0.66 2 1 C2.33 3.97 2.66 6.94 3 10 C12.24 10 21.48 10 31 10 C31 10.33 31 10.66 31 11 C20.77 11 10.54 11 0 11 C-1 3 -1 3 0 0 Z " fill="#A33BC0" transform="translate(279,296)"/>
<path d="M0 0 C0.33 1.32 0.66 2.64 1 4 C1.75925781 4.04898437 2.51851562 4.09796875 3.30078125 4.1484375 C4.29464844 4.22320312 5.28851563 4.29796875 6.3125 4.375 C7.79169922 4.47941406 7.79169922 4.47941406 9.30078125 4.5859375 C12 5 12 5 15 7 C10.05 7.33 5.1 7.66 0 8 C0 7.34 0 6.68 0 6 C-1.32 6 -2.64 6 -4 6 C-3.6875 4.125 -3.6875 4.125 -3 2 C-2.01 1.34 -1.02 0.68 0 0 Z " fill="#5B48E0" transform="translate(205,272)"/>
<path d="M0 0 C1.2077558 3.62326739 0.54311128 4.64146369 -1 8 C1.31 8.33 3.62 8.66 6 9 C5.67 9.99 5.34 10.98 5 12 C2.03 12 -0.94 12 -4 12 C-4 9.69 -4 7.38 -4 5 C-3.01 4.67 -2.02 4.34 -1 4 C-0.26676204 1.98491642 -0.26676204 1.98491642 0 0 Z " fill="#4D61DE" transform="translate(163,272)"/>
<path d="M0 0 C6.93 0.495 6.93 0.495 14 1 C14 1.66 14 2.32 14 3 C14.99 3 15.98 3 17 3 C17 3.99 17 4.98 17 6 C14.03 5.67 11.06 5.34 8 5 C8 4.34 8 3.68 8 3 C7.05125 3.020625 6.1025 3.04125 5.125 3.0625 C2 3 2 3 0 2 C0 1.34 0 0.68 0 0 Z " fill="#972FEB" transform="translate(196,286)"/>
<path d="M0 0 C1.98 0.99 1.98 0.99 4 2 C4 2.66 4 3.32 4 4 C4.61875 4.0825 5.2375 4.165 5.875 4.25 C6.57625 4.4975 7.2775 4.745 8 5 C8.28875 5.61875 8.5775 6.2375 8.875 6.875 C10.50850952 9.96051798 12.88165706 10.64419872 16 12 C16 13.65 16 15.3 16 17 C10.37780154 12.33477149 4.83989204 7.48740595 0 2 C0 1.34 0 0.68 0 0 Z " fill="#865BE5" transform="translate(165,175)"/>
<path d="M0 0 C-1.32 0.33 -2.64 0.66 -4 1 C-4 0.34 -4 -0.32 -4 -1 C-5.89510699 -1.08160748 -7.79124504 -1.13946459 -9.6875 -1.1875 C-10.74324219 -1.22230469 -11.79898438 -1.25710937 -12.88671875 -1.29296875 C-17.34076628 -0.87383002 -19.88501354 0.88501354 -23 4 C-23.99 3.34 -24.98 2.68 -26 2 C-17.84414819 -5.41441074 -9.17816375 -5.27744416 0 0 Z " fill="#865DE4" transform="translate(196,168)"/>
<path d="M0 0 C0.99 0.33 1.98 0.66 3 1 C3 5.62 3 10.24 3 15 C2.01 15 1.02 15 0 15 C-0.19448477 12.87562788 -0.38038289 10.75046809 -0.5625 8.625 C-0.66691406 7.44164062 -0.77132813 6.25828125 -0.87890625 5.0390625 C-1 2 -1 2 0 0 Z " fill="#4C70E0" transform="translate(334,289)"/>
<path d="M0 0 C1.97909398 -0.02686553 3.95828971 -0.04633375 5.9375 -0.0625 C7.03964844 -0.07410156 8.14179688 -0.08570313 9.27734375 -0.09765625 C12 0 12 0 13 1 C13.12685806 3.63746756 13.18520617 6.23709166 13.1875 8.875 C13.19974609 9.60847656 13.21199219 10.34195312 13.22460938 11.09765625 C13.23509566 14.93563514 13.17768617 16.73347074 11 20 C10.67 13.73 10.34 7.46 10 1 C6.7 1 3.4 1 0 1 C0 0.67 0 0.34 0 0 Z " fill="#4758DC" transform="translate(385,260)"/>
<path d="M0 0 C0.33 0 0.66 0 1 0 C1 2.31 1 4.62 1 7 C7.435 6.505 7.435 6.505 14 6 C14.33 9.96 14.66 13.92 15 18 C14.34 18.33 13.68 18.66 13 19 C13 15.7 13 12.4 13 9 C12.22914063 9.01160156 11.45828125 9.02320313 10.6640625 9.03515625 C9.15972656 9.04869141 9.15972656 9.04869141 7.625 9.0625 C6.62726563 9.07410156 5.62953125 9.08570313 4.6015625 9.09765625 C2 9 2 9 0 8 C0 5.36 0 2.72 0 0 Z " fill="#4451DF" transform="translate(334,272)"/>
<path d="M0 0 C0.66 0 1.32 0 2 0 C2.33 3.63 2.66 7.26 3 11 C12.57 11 22.14 11 32 11 C30 13 30 13 27.20263672 13.13525391 C26.04006348 13.08288574 24.87749023 13.03051758 23.6796875 12.9765625 C22.42285156 12.925 21.16601562 12.8734375 19.87109375 12.8203125 C18.53905165 12.75543074 17.2070205 12.69032366 15.875 12.625 C14.53519706 12.56676177 13.19535313 12.50945844 11.85546875 12.453125 C8.56979268 12.31129726 5.28484064 12.15985087 2 12 C1.66269158 10.56342755 1.33030409 9.12569907 1 7.6875 C0.814375 6.88699219 0.62875 6.08648437 0.4375 5.26171875 C0 3 0 3 0 0 Z " fill="#7F3AD2" transform="translate(280,294)"/>
<path d="M0 0 C0.66 0 1.32 0 2 0 C3.54631384 3.09262767 3.39060716 6.3670891 3.62109375 9.78515625 C3.74613281 10.51605469 3.87117188 11.24695313 4 12 C6.29629994 13.14814997 8.07698086 13.30769809 10.625 13.5625 C11.44226563 13.64628906 12.25953125 13.73007812 13.1015625 13.81640625 C13.72804688 13.87699219 14.35453125 13.93757813 15 14 C15 14.33 15 14.66 15 15 C10.05 15 5.1 15 0 15 C0 10.05 0 5.1 0 0 Z " fill="#9F36D8" transform="translate(369,292)"/>
<path d="M0 0 C1.47906892 -0.02689216 2.95827483 -0.04634621 4.4375 -0.0625 C5.26121094 -0.07410156 6.08492188 -0.08570313 6.93359375 -0.09765625 C9 0 9 0 10 1 C10.07205511 2.68608966 10.08386068 4.37500659 10.0625 6.0625 C10.05347656 6.98160156 10.04445313 7.90070313 10.03515625 8.84765625 C10.02355469 9.55792969 10.01195312 10.26820313 10 11 C9.01 11.33 8.02 11.66 7 12 C7 8.7 7 5.4 7 2 C5.02 2 3.04 2 1 2 C0.67 1.34 0.34 0.68 0 0 Z " fill="#24C2F9" transform="translate(305,292)"/>
<path d="M0 0 C0.66 0.33 1.32 0.66 2 1 C-3.94 6.94 -9.88 12.88 -16 19 C-16 15.34648137 -15.11057699 13.93973224 -13 11 C-11.67479497 10.31731862 -10.34187818 9.6492959 -9 9 C-7.73195434 6.9664052 -7.73195434 6.9664052 -7 5 C-6.34 5 -5.68 5 -5 5 C-4.67 4.34 -4.34 3.68 -4 3 C-2.69084721 1.96854629 -1.35917857 0.96457834 0 0 Z " fill="#8158DB" transform="translate(289,174)"/>
<path d="M0 0 C-1.27836945 4.8465655 -2.99199252 7.44959294 -6.625 10.875 C-7.85089844 12.04675781 -7.85089844 12.04675781 -9.1015625 13.2421875 C-9.72804688 13.82226562 -10.35453125 14.40234375 -11 15 C-11.609375 13.140625 -11.609375 13.140625 -12 11 C-10.25 8.75 -10.25 8.75 -8 7 C-7.01 7 -6.02 7 -5 7 C-5 5.68 -5 4.36 -5 3 C-2.64285714 0 -2.64285714 0 0 0 Z " fill="#5624C9" transform="translate(357,171)"/>
<path d="M0 0 C0.66 0 1.32 0 2 0 C3.28317892 3.84953676 3.06643637 6.94738135 3 11 C2.34 11 1.68 11 1 11 C1 11.66 1 12.32 1 13 C0.34 13 -0.32 13 -1 13 C-1.02696365 11.20841511 -1.04637917 9.41671527 -1.0625 7.625 C-1.07410156 6.62726563 -1.08570313 5.62953125 -1.09765625 4.6015625 C-1 2 -1 2 0 0 Z " fill="#4C77E0" transform="translate(158,293)"/>
<path d="M0 0 C0.99 0.33 1.98 0.66 3 1 C3 5.29 3 9.58 3 14 C2.01 14.33 1.02 14.66 0 15 C0 10.05 0 5.1 0 0 Z " fill="#378CE6" transform="translate(248,289)"/>
<path d="M0 0 C0.99386719 0.02707031 1.98773438 0.05414063 3.01171875 0.08203125 C4.15060547 0.13423828 4.15060547 0.13423828 5.3125 0.1875 C5.6425 1.8375 5.9725 3.4875 6.3125 5.1875 C5.6525 4.8575 4.9925 4.5275 4.3125 4.1875 C2.108136 3.95799681 -0.10142173 3.77674067 -2.3125 3.625 C-3.50101562 3.54121094 -4.68953125 3.45742188 -5.9140625 3.37109375 C-7.28691406 3.28021484 -7.28691406 3.28021484 -8.6875 3.1875 C-6.10291354 -0.17334451 -4.11082043 -0.14508778 0 0 Z " fill="#37D4F1" transform="translate(367.6875,256.8125)"/>
<path d="M0 0 C0.99 0.66 1.98 1.32 3 2 C2.76096248 5.22700655 1.7503011 6.26842632 -0.5 8.6875 C-4.29264153 11.70311254 -8.28885985 11.8848388 -13 12 C-13 11.34 -13 10.68 -13 10 C-10.36 10 -7.72 10 -5 10 C-5 9.34 -5 8.68 -5 8 C-4.01 8 -3.02 8 -2 8 C-2 7.34 -2 6.68 -2 6 C-1.34 6 -0.68 6 0 6 C-0.185625 5.38125 -0.37125 4.7625 -0.5625 4.125 C-1 2 -1 2 0 0 Z " fill="#4A2ECD" transform="translate(211,247)"/>
<path d="M0 0 C0 0.66 0 1.32 0 2 C-6.27 2 -12.54 2 -19 2 C-19 1.34 -19 0.68 -19 0 C-16.77156512 -0.19600577 -14.54220107 -0.38146569 -12.3125 -0.5625 C-10.45044922 -0.71912109 -10.45044922 -0.71912109 -8.55078125 -0.87890625 C-5.44164467 -0.98493841 -2.99189028 -0.77228525 0 0 Z " fill="#2691E5" transform="translate(212,292)"/>
<path d="M0 0 C0.66 0 1.32 0 2 0 C3.33333333 6.66666667 4.66666667 13.33333333 6 20 C2.53879342 18.26939671 2.05378452 14.44471831 0.8203125 10.9453125 C-0.25327277 7.09063014 -0.29979178 3.97224114 0 0 Z " fill="#9D35EF" transform="translate(356,263)"/>
<path d="M0 0 C2.56757027 2.2326698 3.40105268 3.67188707 4 7 C4.11731034 9.18524616 4.17505201 11.37414273 4.1875 13.5625 C4.20167969 14.69816406 4.21585937 15.83382812 4.23046875 17.00390625 C4 20 4 20 2 23 C2.01160156 22.01257813 2.02320313 21.02515625 2.03515625 20.0078125 C2.04417969 18.72648437 2.05320312 17.44515625 2.0625 16.125 C2.07410156 14.84882813 2.08570313 13.57265625 2.09765625 12.2578125 C2.23176569 9.11335348 2.23176569 9.11335348 1 7 C0.34 7 -0.32 7 -1 7 C-0.67 4.69 -0.34 2.38 0 0 Z " fill="#5C29CE" transform="translate(355,148)"/>
<path d="M0 0 C0.99 0 1.98 0 3 0 C3.33 5.94 3.66 11.88 4 18 C3.01 17.67 2.02 17.34 1 17 C0.67 11.39 0.34 5.78 0 0 Z " fill="#B136D4" transform="translate(286,273)"/>
<path d="M0 0 C3.501397 1.31302387 5.51511579 2.21206316 7.5 5.4375 C8.08457544 8.43344911 7.66516771 9.50224844 6 12 C5.4121875 10.6078125 5.4121875 10.6078125 4.8125 9.1875 C2.85260151 5.74078196 1.40239497 4.83913242 -2 3 C-2 2.34 -2 1.68 -2 1 C-1.34 0.67 -0.68 0.34 0 0 Z " fill="#2CCAF4" transform="translate(268,274)"/>
<path d="M0 0 C0.66 0.99 1.32 1.98 2 3 C1.38511719 3.59748047 1.38511719 3.59748047 0.7578125 4.20703125 C0.21898437 4.73683594 -0.31984375 5.26664063 -0.875 5.8125 C-1.40867187 6.33457031 -1.94234375 6.85664063 -2.4921875 7.39453125 C-4.20776561 9.13259904 -4.20776561 9.13259904 -6 12 C-6.99 11.01 -7.98 10.02 -9 9 C-6.03 6.03 -3.06 3.06 0 0 Z " fill="#591FDF" transform="translate(281,208)"/>
<path d="M0 0 C0.66 1.32 1.32 2.64 2 4 C1.21625 4.20625 0.4325 4.4125 -0.375 4.625 C-3.30916286 5.80676612 -3.30916286 5.80676612 -4.3125 9.125 C-4.539375 10.07375 -4.76625 11.0225 -5 12 C-6.32 11.01 -7.64 10.02 -9 9 C-6.03 6.03 -3.06 3.06 0 0 Z " fill="#5A20DF" transform="translate(313,176)"/>
<path d="M0 0 C2.64 0 5.28 0 8 0 C8 3.96 8 7.92 8 12 C7.34 12 6.68 12 6 12 C5.67 9.03 5.34 6.06 5 3 C3.35 2.67 1.7 2.34 0 2 C0 1.34 0 0.68 0 0 Z " fill="#C634EB" transform="translate(162,294)"/>
<path d="M0 0 C0.33 1.32 0.66 2.64 1 4 C0.34 4 -0.32 4 -1 4 C-1 4.99 -1 5.98 -1 7 C-3.64 7 -6.28 7 -9 7 C-9 6.01 -9 5.02 -9 4 C-3.375 1.875 -3.375 1.875 0 3 C0 2.01 0 1.02 0 0 Z " fill="#557AE9" transform="translate(291,288)"/>
<path d="M0 0 C0.66 0 1.32 0 2 0 C2 0.66 2 1.32 2 2 C3.216875 1.979375 4.43375 1.95875 5.6875 1.9375 C8.91977322 1.93175884 11.84934741 2.21233685 15 3 C15 3.33 15 3.66 15 4 C13.25093341 4.19601608 11.50068154 4.38147403 9.75 4.5625 C8.77546875 4.66691406 7.8009375 4.77132813 6.796875 4.87890625 C4.2368648 4.98974468 2.41851841 4.77738092 0 4 C0 2.68 0 1.36 0 0 Z " fill="#3892FB" transform="translate(206,272)"/>
<path d="M0 0 C0.33 0.66 0.66 1.32 1 2 C1.66 2 2.32 2 3 2 C3 2.66 3 3.32 3 4 C1.2421875 4.9765625 -0.515625 5.953125 -2.2734375 6.9296875 C-4.1612614 8.00897274 -4.1612614 8.00897274 -6 10 C-6.99 9.67 -7.98 9.34 -9 9 C-6.03 6.03 -3.06 3.06 0 0 Z " fill="#5A21DE" transform="translate(249,240)"/>
<path d="M0 0 C3.83901868 0.54843124 5.36163505 2.2765265 8 5 C8.99 5.33 9.98 5.66 11 6 C11.33 7.98 11.66 9.96 12 12 C7.47384007 8.32167983 3.60575001 4.58913637 0 0 Z " fill="#835ADF" transform="translate(188,199)"/>
<path d="M0 0 C2 2 2 2 2.1953125 4.3828125 C2.17210937 5.28773438 2.14890625 6.19265625 2.125 7.125 C2.10695312 8.03507812 2.08890625 8.94515625 2.0703125 9.8828125 C2.03550781 10.93082031 2.03550781 10.93082031 2 12 C1.01 12 0.02 12 -1 12 C-1.02687279 10.18757948 -1.04633715 8.37504767 -1.0625 6.5625 C-1.07410156 5.55316406 -1.08570313 4.54382813 -1.09765625 3.50390625 C-1 1 -1 1 0 0 Z " fill="#BC37E6" transform="translate(190,294)"/>
<path d="M0 0 C2.31 0 4.62 0 7 0 C9.14336161 3.4766338 9.21277626 6.21229195 9.125 10.25 C9.10695313 11.32765625 9.08890625 12.4053125 9.0703125 13.515625 C9.04710937 14.33546875 9.02390625 15.1553125 9 16 C8.67 16 8.34 16 8 16 C7.67 11.71 7.34 7.42 7 3 C4.69 2.67 2.38 2.34 0 2 C0 1.34 0 0.68 0 0 Z " fill="#A62DE4" transform="translate(251,288)"/>
<path d="M0 0 C0.99 0 1.98 0 3 0 C4.12256131 2.24512262 4.13413762 3.51456649 4.125 6 C4.12757813 6.70125 4.13015625 7.4025 4.1328125 8.125 C4 10 4 10 3 12 C2.34 12 1.68 12 1 12 C0.67 8.04 0.34 4.08 0 0 Z " fill="#2F8DE1" transform="translate(347,277)"/>
<path d="M0 0 C1.65322266 0.01740234 1.65322266 0.01740234 3.33984375 0.03515625 C4.99693359 0.04869141 4.99693359 0.04869141 6.6875 0.0625 C7.54214844 0.07410156 8.39679688 0.08570313 9.27734375 0.09765625 C9.27734375 0.75765625 9.27734375 1.41765625 9.27734375 2.09765625 C8.39046875 2.03578125 7.50359375 1.97390625 6.58984375 1.91015625 C1.98144066 2.17100926 -0.5119299 3.8869299 -3.72265625 7.09765625 C-3.76519981 5.09810879 -3.76346408 3.09723989 -3.72265625 1.09765625 C-2.72265625 0.09765625 -2.72265625 0.09765625 0 0 Z " fill="#7235E3" transform="translate(361.72265625,260.90234375)"/>
<path d="M0 0 C3.63 0 7.26 0 11 0 C10.45660208 4.56454251 9.20536179 7.9728176 7 12 C6.67 12 6.34 12 6 12 C6 10.02 6 8.04 6 6 C6.66 5.67 7.32 5.34 8 5 C8.33 3.68 8.66 2.36 9 1 C6.03 1 3.06 1 0 1 C0 0.67 0 0.34 0 0 Z " fill="#5257DB" transform="translate(261,260)"/>
<path d="M0 0 C0.33 0.99 0.66 1.98 1 3 C1.66 3 2.32 3 3 3 C3.12375 3.61875 3.2475 4.2375 3.375 4.875 C3.87197356 7.19120832 3.87197356 7.19120832 6 9 C5.625 11.125 5.625 11.125 5 13 C5 12.34 5 11.68 5 11 C4.34 11 3.68 11 3 11 C3 10.34 3 9.68 3 9 C2.34 9 1.68 9 1 9 C-1.09230769 4.56923077 -1.09230769 4.56923077 -0.625 1.6875 C-0.41875 1.130625 -0.2125 0.57375 0 0 Z " fill="#853BE8" transform="translate(363,279)"/>
<path d="M0 0 C0.66 0 1.32 0 2 0 C1.67 2.64 1.34 5.28 1 8 C0.01 8 -0.98 8 -2 8 C-2 8.99 -2 9.98 -2 11 C-2.66 11 -3.32 11 -4 11 C-3.39301257 6.87248551 -1.96189209 3.6678852 0 0 Z " fill="#972DEF" transform="translate(256,262)"/>
<path d="M0 0 C0.66 0.33 1.32 0.66 2 1 C-0.97 3.97 -3.94 6.94 -7 10 C-7.33 8.68 -7.66 7.36 -8 6 C-7.01 5.67 -6.02 5.34 -5 5 C-4.67 4.01 -4.34 3.02 -4 2 C-2.0625 0.75 -2.0625 0.75 0 0 Z " fill="#5723CA" transform="translate(337,192)"/>
<path d="M0 0 C1.60875 0.2784375 1.60875 0.2784375 3.25 0.5625 C7.07210322 1.23224429 7.07210322 1.23224429 11 0 C9.02 2.31 7.04 4.62 5 7 C4.67 5.68 4.34 4.36 4 3 C2.68 2.67 1.36 2.34 0 2 C0 1.34 0 0.68 0 0 Z " fill="#5820D2" transform="translate(280,240)"/>
<path d="M0 0 C0.33 0 0.66 0 1 0 C1 2.64 1 5.28 1 8 C1.66 8 2.32 8 3 8 C2.67 10.31 2.34 12.62 2 15 C1.34 14.67 0.68 14.34 0 14 C0 9.38 0 4.76 0 0 Z " fill="#3C73DC" transform="translate(226,284)"/>
<path d="M0 0 C3.875 1.75 3.875 1.75 5 4 C3.68 4 2.36 4 1 4 C1 4.66 1 5.32 1 6 C-0.65 6 -2.3 6 -4 6 C-4 5.34 -4 4.68 -4 4 C-2.68 3.67 -1.36 3.34 0 3 C0 2.01 0 1.02 0 0 Z " fill="#5A1DD6" transform="translate(191,228)"/>
<path d="M0 0 C3 0 3 0 4.6875 1.375 C6 3 6 3 6 5 C6.66 5 7.32 5 8 5 C7.67 6.32 7.34 7.64 7 9 C5.82737096 7.88121617 4.66204862 6.75476949 3.5 5.625 C2.8503125 4.99851563 2.200625 4.37203125 1.53125 3.7265625 C0 2 0 2 0 0 Z " fill="#5927CB" transform="translate(144,218)"/>
<path d="M0 0 C0.33 0.66 0.66 1.32 1 2 C3.32156597 2.40729228 5.6568787 2.74438677 8 3 C8 3.66 8 4.32 8 5 C5.03 5 2.06 5 -1 5 C-0.67 3.35 -0.34 1.7 0 0 Z " fill="#47AAFA" transform="translate(161,278)"/>
<path d="M0 0 C0.66 0.99 1.32 1.98 2 3 C1.34 3 0.68 3 0 3 C0 8.61 0 14.22 0 20 C-0.33 20 -0.66 20 -1 20 C-1 14.39 -1 8.78 -1 3 C-1.66 2.67 -2.32 2.34 -3 2 C-2.01 1.34 -1.02 0.68 0 0 Z " fill="#8D34EA" transform="translate(193,263)"/>
<path d="M0 0 C0.66 0.33 1.32 0.66 2 1 C-0.64 3.64 -3.28 6.28 -6 9 C-6.33 7.68 -6.66 6.36 -7 5 C-6.34 4.67 -5.68 4.34 -5 4 C-5 3.34 -5 2.68 -5 2 C-2.625 0.9375 -2.625 0.9375 0 0 Z " fill="#5523C9" transform="translate(281,248)"/>
<path d="M0 0 C3.80635497 3.20760251 7.54563567 6.40746109 11 10 C10.67 10.66 10.34 11.32 10 12 C9.60167969 11.57847656 9.20335937 11.15695313 8.79296875 10.72265625 C8.26316406 10.17480469 7.73335937 9.62695312 7.1875 9.0625 C6.66542969 8.51722656 6.14335937 7.97195312 5.60546875 7.41015625 C3.94187802 5.76480908 3.94187802 5.76480908 1 5 C0.67 3.35 0.34 1.7 0 0 Z " fill="#8760D8" transform="translate(214,186)"/>
<path d="M0 0 C0.66 0.33 1.32 0.66 2 1 C2.4140625 3.06640625 2.4140625 3.06640625 2.625 5.5625 C2.69976562 6.38878906 2.77453125 7.21507812 2.8515625 8.06640625 C2.92503906 9.02353516 2.92503906 9.02353516 3 10 C2.01 10 1.02 10 0 10 C-1.125 3.375 -1.125 3.375 0 0 Z " fill="#C12CF0" transform="translate(279,296)"/>
<path d="M0 0 C2.31 0.33 4.62 0.66 7 1 C7 1.99 7 2.98 7 4 C4.03 3.67 1.06 3.34 -2 3 C-1.34 2.01 -0.68 1.02 0 0 Z " fill="#8E3AEA" transform="translate(206,288)"/>
<path d="M0 0 C1.98 0.99 1.98 0.99 4 2 C4 3.98 4 5.96 4 8 C3.01 7.67 2.02 7.34 1 7 C0.67 4.69 0.34 2.38 0 0 Z " fill="#B22BE2" transform="translate(164,272)"/>
<path d="M0 0 C0.99 0 1.98 0 3 0 C2.44894091 3.9492568 1.61064629 7.34920174 0 11 C-0.33 11 -0.66 11 -1 11 C-0.67 7.37 -0.34 3.74 0 0 Z " fill="#6314E6" transform="translate(252,262)"/>
<path d="M0 0 C7.48291572 6.15034169 7.48291572 6.15034169 10 10 C6.40486061 8.3407049 3.13593666 6.42322378 0 4 C0 2.68 0 1.36 0 0 Z " fill="#582AC0" transform="translate(201,237)"/>
<path d="M0 0 C-0.125 1.75 -0.125 1.75 -1 4 C-4.0625 6.25 -4.0625 6.25 -7 8 C-7.66 7.67 -8.32 7.34 -9 7 C-7.88121617 5.82737096 -6.75476949 4.66204862 -5.625 3.5 C-4.68527344 2.52546875 -4.68527344 2.52546875 -3.7265625 1.53125 C-2 0 -2 0 0 0 Z " fill="#5A21DF" transform="translate(302,189)"/>
<path d="M0 0 C0 0.66 0 1.32 0 2 C-2.1875 3.5078125 -2.1875 3.5078125 -5 5.125 C-5.928125 5.66382812 -6.85625 6.20265625 -7.8125 6.7578125 C-8.8953125 7.37269531 -8.8953125 7.37269531 -10 8 C-8.1771376 3.8284495 -4.90446377 0 0 0 Z " fill="#8961E4" transform="translate(308,119)"/>
<path d="M0 0 C0.33 0 0.66 0 1 0 C1 3.3 1 6.6 1 10 C0.01 10.33 -0.98 10.66 -2 11 C-2.05399736 9.54207116 -2.09279177 8.08357288 -2.125 6.625 C-2.15980469 5.40683594 -2.15980469 5.40683594 -2.1953125 4.1640625 C-2 2 -2 2 0 0 Z " fill="#3680D5" transform="translate(314,293)"/>
<path d="M0 0 C1.98 0.99 1.98 0.99 4 2 C4 2.66 4 3.32 4 4 C4.66 4 5.32 4 6 4 C6 4.99 6 5.98 6 7 C4.125 6.6875 4.125 6.6875 2 6 C0 3 0 3 0 0 Z " fill="#32B6F5" transform="translate(374,274)"/>
<path d="M0 0 C0.66 0 1.32 0 2 0 C2.50610724 6.07328688 1.04157942 9.77228537 -2 15 C-2.58984375 13.1484375 -2.58984375 13.1484375 -3 11 C-2.2884375 9.824375 -2.2884375 9.824375 -1.5625 8.625 C0.29187027 5.50965795 0.24856165 3.56271696 0 0 Z " fill="#8837E8" transform="translate(151,262)"/>
<path d="M0 0 C0.33 0 0.66 0 1 0 C1 3.3 1 6.6 1 10 C0.34 10 -0.32 10 -1 10 C-2.38125018 7.23749964 -2.19079306 5.05268901 -2 2 C-1.34 1.34 -0.68 0.68 0 0 Z " fill="#3CBAEE" transform="translate(141,259)"/>
<path d="M0 0 C2.31 0.66 4.62 1.32 7 2 C7 3.65 7 5.3 7 7 C5.83040013 6.02433888 4.66438823 5.044375 3.5 4.0625 C2.8503125 3.51722656 2.200625 2.97195312 1.53125 2.41015625 C1.0259375 1.94480469 0.520625 1.47945312 0 1 C0 0.67 0 0.34 0 0 Z " fill="#5A27CD" transform="translate(166,241)"/>
<path d="M0 0 C2.5 2.3125 2.5 2.3125 5 5 C5 5.99 5 6.98 5 8 C4.01 8 3.02 8 2 8 C2 6.68 2 5.36 2 4 C0.68 3.34 -0.64 2.68 -2 2 C-1.34 1.34 -0.68 0.68 0 0 Z " fill="#5A26D4" transform="translate(349,140)"/>
<path d="M0 0 C0.66 0.33 1.32 0.66 2 1 C0.875 2.9375 0.875 2.9375 -1 5 C-4.1875 5.75 -4.1875 5.75 -7 6 C-3.375 1.125 -3.375 1.125 0 0 Z " fill="#591FE0" transform="translate(268,223)"/>
<path d="M0 0 C2.375 0.3125 2.375 0.3125 5 1 C5.66 1.99 6.32 2.98 7 4 C6.67 4.99 6.34 5.98 6 7 C4.02 4.69 2.04 2.38 0 0 Z " fill="#8258E5" transform="translate(200,211)"/>
<path d="M0 0 C1.12894876 0.93274109 2.25300876 1.87140122 3.375 2.8125 C4.00148437 3.33457031 4.62796875 3.85664063 5.2734375 4.39453125 C7 6 7 6 9 9 C7.65686601 8.35330586 6.32608822 7.68096422 5 7 C4.0925 6.54625 3.185 6.0925 2.25 5.625 C1.5075 5.08875 0.765 4.5525 0 4 C0 2.68 0 1.36 0 0 Z " fill="#5729C4" transform="translate(160,196)"/>
<path d="M0 0 C1.98 0 3.96 0 6 0 C6 0.99 6 1.98 6 3 C4.02 3 2.04 3 0 3 C0 2.01 0 1.02 0 0 Z " fill="#AA30E1" transform="translate(340,290)"/>
<path d="M0 0 C-3.06117568 2.62386487 -3.73173127 3 -8 3 C-8 2.01 -8 1.02 -8 0 C-2.25 -1.125 -2.25 -1.125 0 0 Z " fill="#7C4AD4" transform="translate(314,271)"/>
<path d="M0 0 C0 0.99 0 1.98 0 3 C-3.63 3 -7.26 3 -11 3 C-11 2.67 -11 2.34 -11 2 C-7.12315913 0.80712589 -4.08378077 0 0 0 Z " fill="#6A14E3" transform="translate(228,271)"/>
<path d="M0 0 C2.125 0.9375 2.125 0.9375 4 2 C1.03 4.475 1.03 4.475 -2 7 C-2 5.02 -2 3.04 -2 1 C-1.34 0.67 -0.68 0.34 0 0 Z " fill="#5520CC" transform="translate(323,203)"/>
<path d="M0 0 C1.14926266 0.95421808 2.29430541 1.91352045 3.4375 2.875 C4.07558594 3.40867188 4.71367187 3.94234375 5.37109375 4.4921875 C7 6 7 6 8 8 C5.53199953 6.84826645 3.95216435 5.95216435 2 4 C0.68252676 3.30251417 -0.64914193 2.63040043 -2 2 C-1.34 1.34 -0.68 0.68 0 0 Z " fill="#5A31B9" transform="translate(152,188)"/>
<path d="M0 0 C-0.39803561 2.88575819 -0.79009069 3.82189513 -3.0625 5.75 C-3.701875 6.1625 -4.34125 6.575 -5 7 C-4.625 4.0625 -4.625 4.0625 -4 1 C-2 0 -2 0 0 0 Z " fill="#5A20D2" transform="translate(350,179)"/>
<path d="M0 0 C0.66 0 1.32 0 2 0 C2.06058594 0.61488281 2.12117188 1.22976563 2.18359375 1.86328125 C2.26738281 2.67152344 2.35117187 3.47976563 2.4375 4.3125 C2.51871094 5.11300781 2.59992188 5.91351563 2.68359375 6.73828125 C2.95265693 9.16087179 2.95265693 9.16087179 4 12 C3.34 12 2.68 12 2 12 C1.66269158 10.56342755 1.33030409 9.12569907 1 7.6875 C0.814375 6.88699219 0.62875 6.08648437 0.4375 5.26171875 C0 3 0 3 0 0 Z " fill="#9033DD" transform="translate(280,294)"/>
<path d="M0 0 C2.97 0.495 2.97 0.495 6 1 C6.33 2.98 6.66 4.96 7 7 C5.83040013 6.02433888 4.66438823 5.044375 3.5 4.0625 C2.8503125 3.51722656 2.200625 2.97195313 1.53125 2.41015625 C1.0259375 1.94480469 0.520625 1.47945313 0 1 C0 0.67 0 0.34 0 0 Z " fill="#5C28CD" transform="translate(182,257)"/>
<path d="M0 0 C1.65 0 3.3 0 5 0 C5.66 2.31 6.32 4.62 7 7 C5.83040013 6.02433888 4.66438823 5.044375 3.5 4.0625 C2.8503125 3.51722656 2.200625 2.97195312 1.53125 2.41015625 C1.0259375 1.94480469 0.520625 1.47945312 0 1 C0 0.67 0 0.34 0 0 Z " fill="#5828C7" transform="translate(152,227)"/>
<path d="M0 0 C1.32 0.33 2.64 0.66 4 1 C0.535 3.97 0.535 3.97 -3 7 C-3 6.01 -3 5.02 -3 4 C-2.34 4 -1.68 4 -1 4 C-0.67 2.68 -0.34 1.36 0 0 Z " fill="#8358DD" transform="translate(244,217)"/>
<path d="M0 0 C1.32 0.33 2.64 0.66 4 1 C0.535 3.97 0.535 3.97 -3 7 C-2.67 5.35 -2.34 3.7 -2 2 C-1.34 2 -0.68 2 0 2 C0 1.34 0 0.68 0 0 Z " fill="#8459DF" transform="translate(324,137)"/>
<path d="M0 0 C0 0.66 0 1.32 0 2 C-2.64 2 -5.28 2 -8 2 C-8 1.34 -8 0.68 -8 0 C-4.71023192 -1.09658936 -3.28696233 -0.79953138 0 0 Z " fill="#2A8FFA" transform="translate(212,292)"/>
<path d="M0 0 C0.66 0 1.32 0 2 0 C2.66 2.97 3.32 5.94 4 9 C3.01 8.67 2.02 8.34 1 8 C0.67 5.36 0.34 2.72 0 0 Z " fill="#5C44E3" transform="translate(350,261)"/>
<path d="M0 0 C0.99 0.33 1.98 0.66 3 1 C3.33 1.99 3.66 2.98 4 4 C2.02 4 0.04 4 -2 4 C-1.34 2.68 -0.68 1.36 0 0 Z " fill="#606CEC" transform="translate(198,259)"/>
<path d="M0 0 C2.31 1.98 4.62 3.96 7 6 C3.89448334 6 2.64738916 5.4606285 0 4 C0 2.68 0 1.36 0 0 Z " fill="#845FD9" transform="translate(204,176)"/>
</svg>
